<?xml version="1.0" encoding="UTF-8" standalone="no"?>
<svg
   viewBox="0 0 79.370078 79.37008"
   version="1.1"
   id="svg25848"
   sodipodi:docname="pin-spiral-21mm.svg"
   inkscape:version="1.4.2 (ebf0e940, 2025-05-08)"
   width="21mm"
   height="21mm"
   inkscape:export-filename="sicilian-american-flag-tri.png"
   inkscape:export-xdpi="196.879"
   inkscape:export-ydpi="196.879"
   xmlns:inkscape="http://www.inkscape.org/namespaces/inkscape"
   xmlns:sodipodi="http://sodipodi.sourceforge.net/DTD/sodipodi-0.dtd"
   xmlns="http://www.w3.org/2000/svg"
   xmlns:svg="http://www.w3.org/2000/svg"
   xmlns:rdf="http://www.w3.org/1999/02/22-rdf-syntax-ns#"
   xmlns:cc="http://creativecommons.org/ns#"
   xmlns:dc="http://purl.org/dc/elements/1.1/">
  <metadata
     id="metadata25854">
    <rdf:RDF>
      <cc:Work
         rdf:about="">
        <dc:format>image/svg+xml</dc:format>
        <dc:type
           rdf:resource="http://purl.org/dc/dcmitype/StillImage" />
      </cc:Work>
    </rdf:RDF>
  </metadata>
  <defs
     id="defs25852">
    <clipPath
       id="p37440f88fb">
      <rect
         x="7.1999998"
         y="7.1999998"
         width="223.2"
         height="203.13596"
         id="rect28236" />
    </clipPath>
    <clipPath
       id="p37440f88fb-2">
      <rect
         x="7.1999998"
         y="7.1999998"
         width="223.2"
         height="203.13596"
         id="rect28236-1" />
    </clipPath>
    <clipPath
       id="p37440f88fb-9">
      <rect
         x="7.1999998"
         y="7.1999998"
         width="223.2"
         height="203.13596"
         id="rect28236-7" />
    </clipPath>
    <clipPath
       id="p99bb27ef76">
      <rect
         x="7.1999998"
         y="7.1999998"
         width="223.2"
         height="204.94019"
         id="rect32913" />
    </clipPath>
    <clipPath
       id="clipPath33495">
      <rect
         x="7.1999998"
         y="7.1999998"
         width="223.2"
         height="204.94019"
         id="rect33493" />
    </clipPath>
    <clipPath
       id="p37440f88fb-3">
      <rect
         x="7.1999998"
         y="7.1999998"
         width="223.2"
         height="203.13596"
         id="rect28236-2" />
    </clipPath>
    <clipPath
       id="p99bb27ef76-5">
      <rect
         x="7.1999998"
         y="7.1999998"
         width="223.2"
         height="204.94019"
         id="rect32913-3" />
    </clipPath>
    <clipPath
       id="clipPath34836">
      <rect
         x="7.1999998"
         y="7.1999998"
         width="223.2"
         height="204.94019"
         id="rect34834" />
    </clipPath>
    <clipPath
       id="p37440f88fb-9-2">
      <rect
         x="7.1999998"
         y="7.1999998"
         width="223.2"
         height="203.13596"
         id="rect28236-7-9" />
    </clipPath>
    <clipPath
       id="p37440f88fb-3-9">
      <rect
         x="7.1999998"
         y="7.1999998"
         width="223.2"
         height="203.13596"
         id="rect28236-2-8" />
    </clipPath>
    <clipPath
       id="p37440f88fb-3-9-6">
      <rect
         x="7.1999998"
         y="7.1999998"
         width="223.2"
         height="203.13596"
         id="rect28236-2-8-9" />
    </clipPath>
    <clipPath
       id="p37440f88fb-3-7">
      <rect
         x="7.1999998"
         y="7.1999998"
         width="223.2"
         height="203.13596"
         id="rect28236-2-5" />
    </clipPath>
  </defs>
  <sodipodi:namedview
     pagecolor="#ffffff"
     bordercolor="#666666"
     borderopacity="1"
     objecttolerance="10"
     gridtolerance="10"
     guidetolerance="10"
     inkscape:pageopacity="0"
     inkscape:pageshadow="2"
     inkscape:window-width="1152"
     inkscape:window-height="932"
     id="namedview25850"
     showgrid="false"
     inkscape:zoom="3.2376993"
     inkscape:cx="21.311429"
     inkscape:cy="7.8759631"
     inkscape:window-x="517"
     inkscape:window-y="120"
     inkscape:window-maximized="0"
     inkscape:current-layer="svg25848"
     inkscape:document-rotation="0"
     inkscape:showpageshadow="2"
     inkscape:pagecheckerboard="true"
     inkscape:deskcolor="#d1d1d1"
     inkscape:document-units="mm" />
  <!-- 9 horizontal stripes - alternating red and yellow, with 5 red and 4 yellow -->
  <!-- Stripe 1 - Red -->
  <!-- Stripe 2 - Yellow -->
  <!-- Stripe 3 - Red -->
  <!-- Stripe 4 - Yellow -->
  <!-- Stripe 5 - Red -->
  <!-- Stripe 6 - Yellow -->
  <!-- Stripe 7 - Red -->
  <!-- Stripe 8 - Yellow -->
  <!-- Stripe 9 - Red -->
  <!-- Blue canton (US flag blue) -->
  <!-- Clean space for trinacria - centered at (120, 88.88) -->
  <!-- You can add your trinacria here in Inkscape -->
  <!-- Border -->
  <rect
     x="0.23100001"
     y="-0.33187139"
     width="79.370079"
     height="79.700485"
     fill="#002868"
     id="rect25844-8"
     style="fill:#0a3161;fill-opacity:1;stroke-width:0.385068" />
  <g
     id="axes_1-6"
     style="display:inline;stroke-width:9.4329;stroke-linecap:butt;stroke-linejoin:round;stroke-dasharray:none"
     transform="matrix(0.003831,0.21947797,-0.21947797,0.003831,64.142666,9.257138)">
    <g
       id="line2d_1-3"
       style="display:inline;stroke-width:6.88742;stroke-dasharray:none"
       transform="matrix(1.0171127,0,0,1.0171127,-8.4131379,0.154454)">
      <path
         d="m 109.67815,99.572275 0.76806,-0.102039 0.72781,-0.302561 0.64846,-0.492513 0.53235,-0.66515 0.38285,-0.81419 0.20437,-0.933963 0.002,-1.019577 -0.21763,-1.067045 -0.44843,-1.073398 -0.68307,-1.036778 -0.9142,-0.956497 -1.13433,-0.833073 -1.3361,-0.668241 -1.28671,-0.412305 -1.39648,-0.240951 -1.48309,-0.05037 -1.54365,0.156285 -1.57567,0.375484 -1.577167,0.603333 -1.546674,0.83566 -1.483267,1.068079 -1.386627,1.296062 -1.257036,1.515025 -1.095399,1.720398 -0.903228,1.907712 -0.585316,1.716848 -0.417047,1.8164 -0.235263,1.89905 -0.0417,1.96314 0.161736,2.00722 0.372937,2.02999 0.589663,2.03041 0.809543,2.00764 1.0301,1.96114 1.248787,1.8906 1.462999,1.79598 1.670124,1.67755 1.867549,1.53581 2.052716,1.3716 2.2231,1.18599 2.37634,0.98036 2.51016,0.75633 2.62242,0.51576 2.71124,0.26078 2.77487,-0.006 2.24784,-0.20386 2.25729,-0.38464 2.25211,-0.56794 2.23197,-0.75257 2.19663,-0.9373 2.14599,-1.12087 2.08002,-1.30205 1.99882,-1.4795 1.90255,-1.652 1.79154,-1.81826 1.66618,-1.97702 1.52698,-2.12706 1.37456,-2.26721 1.20963,-2.39629 1.033,-2.51324 0.84558,-2.61699 0.64836,-2.70662 0.44243,-2.781217 0.22895,-2.839965 0.009,-2.882172 -0.21572,-2.90721 -0.44424,-2.914566 -0.67506,-2.903829 -0.9067,-2.874702 -1.13772,-2.827004 -1.36662,-2.760671 -1.59187,-2.675759 -1.81198,-2.572447 -2.02545,-2.451038 -2.23079,-2.311955 -2.42653,-2.155744 -2.61125,-1.983072 -2.7836,-1.794722 -2.94222,-1.591594 -3.08589,-1.374695 -3.21342,-1.145136 -3.32372,-0.904134 -3.41577,-0.652992 -3.48868,-0.393105 -3.54168,-0.125941 -3.57403,0.146957 -3.585238,0.423989 -3.574807,0.703499 -3.542464,0.983792 -3.488031,1.263141 -3.411469,1.539797 -3.312884,1.812 -3.192517,2.077994 -3.050753,2.336029 -2.182452,1.9156 -2.082389,2.050627 -1.974,2.18042 -1.857559,2.304469 -1.733375,2.422278 -1.601781,2.533363 -1.463144,2.637264 -1.317858,2.733538 -1.166346,2.821764 -1.009055,2.901545 -0.84646,2.972508 -0.679058,3.03431 -0.507367,3.086631 -0.331928,3.129195 -0.1533,3.16171 0.02794,3.184 0.211209,3.19584 0.395896,3.19709 0.581385,3.18762 0.767055,3.16734 0.952272,3.13621 1.1364,3.09421 1.318802,3.04136 1.498833,2.97775 1.675861,2.90345 1.849245,2.81861 2.018362,2.72341 2.182589,2.61805 2.341317,2.50279 2.493951,2.37793 2.639908,2.24376 2.778625,2.10067 2.909555,1.94903 3.032176,1.78929 3.145988,1.62189 3.250514,1.44731 3.345308,1.26609 3.429952,1.07876 3.504052,0.8859 3.56727,0.68809 3.61925,0.48598 3.65975,0.28016 3.68848,0.0713 3.70525,-0.13983 3.70989,-0.35268 3.70224,-0.56648 3.68223,-0.78052 3.64981,-0.99411 3.60495,-1.20651 3.5477,-1.41698 3.47813,-1.62482 3.39636,-1.8293 3.30253,-2.02969 3.19686,-2.22529 3.07961,-2.41541 2.95102,-2.59933 2.81145,-2.77641 2.66126,-2.94596 2.50086,-3.10739 2.33067,-3.26003 2.15121,-3.40334 1.96296,-3.53669 1.76648,-3.65964 1.56237,-3.7716 1.35122,-3.87214 1.13369,-3.96081 0.91044,-4.03721 0.68218,-4.10098 0.4496,-4.15179 0.21346,-4.189363 -0.0255,-4.213456 -0.26648,-4.223872 -0.50871,-4.220456 -0.75141,-4.203104 -0.99375,-4.171752 -1.23494,-4.126384 -1.47415,-4.067034 -1.71058,-3.99378 -1.94342,-3.906749 -2.17185,-3.806114 -2.39509,-3.692096 -2.61235,-3.564962 -2.82286,-3.425027 -3.02586,-3.272648 -3.22062,-3.108231 -3.40642,-2.932222 -3.58257,-2.74511 -3.74841,-2.547426 -3.90332,-2.33974 -4.04666,-2.12266 -4.17791,-1.896832 -4.29649,-1.662932 -4.40195,-1.421671 -4.4938,-1.173793 -4.57166,-0.920062 -4.63513,-0.661275 -4.68392,-0.39825 -4.71772,-0.131821 -4.736319,0.137153 -4.739544,0.407806 -4.727254,0.679252 -4.699372,0.9506 -4.655872,1.220956 -4.596778,1.489413 -4.522167,1.755074 -4.432165,2.017037 -4.326957,2.27441 -4.206771,2.526308 -4.071896,2.771859 -3.922664,3.010204 -3.759462,3.240503 -3.582724,3.461935 -3.392934,3.673705 -3.190619,3.875044 -2.976358,4.065209 -2.750767,4.243493 -2.514508,4.409221 -2.268282,4.561755 -2.012829,4.700497 -1.748923,4.824891 -1.477372,4.934422 -1.199017,5.028625 -0.914724,5.10708 -0.62539,5.169413 -0.331928,5.215317 -0.03528,5.2445 0.26361,5.25677 0.563766,5.25196 0.864213,5.22996 1.163962,5.19074 1.462026,5.1343 1.75741,5.0607 2.049128,4.97006 2.336193,4.86259 2.617632,4.73849 2.89248,4.59808 3.15979,4.44168 3.418633,4.26975 3.668102,4.08268 3.907313,3.88105 4.135413,3.66537 4.351578,3.43627 4.55502,3.19444 4.744985,2.94056 4.920761,2.67538 5.081679,2.39971 5.227111,2.11438 5.356479,1.82026 5.469252,1.51827 5.564956,1.20932 5.643164,0.89441 5.7035,0.5745 5.74566,0.25065 5.76939,-0.0761 5.77448,-0.40481 5.7608,-0.7343 5.72829,-1.06351 5.67691,-1.39139 5.60674,-1.71685 3.68959,-1.32368 3.64459,-1.46549 3.59413,-1.60579 3.53827,-1.74434 3.47704,-1.88098 3.41055,-2.01546 3.33884,-2.1476 3.26201,-2.2772 3.18015,-2.40404 3.09335,-2.52796 3.00173,-2.64872 2.90538,-2.76616 2.80444,-2.88011 2.69903,-2.99037 2.58928,-3.09676 2.47536,-3.19911 2.35737,-3.29728 2.23551,-3.39109 2.10991,-3.48038 1.98076,-3.56501 1.84821,-3.64486 1.71247,-3.71975 1.57369,-3.78959 1.43208,-3.85423 1.28783,-3.91359 1.14113,-3.96753 0.99221,-4.01596 0.84124,-4.05879 0.68846,-4.09595 0.53406,-4.12733 0.37828,-4.15289 0.13035,-2.08419 v 0"
         clip-path="url(#p37440f88fb-3-7)"
         style="fill:none;stroke:#fff100;stroke-width:8.93461;stroke-linecap:square;stroke-dasharray:none;stroke-opacity:1"
         id="path28231-8"
         transform="matrix(1.1659855,0,0,1.1659855,4.1210505,-15.263365)" />
    </g>
  </g>
</svg>
