<?xml version="1.0" encoding="UTF-8" standalone="no"?>
<svg
   viewBox="0 0 602 402"
   version="1.1"
   id="svg25848"
   sodipodi:docname="sicilian-american-flag.svg"
   inkscape:version="1.4.2 (ebf0e940, 2025-05-08)"
   width="602"
   height="402"
   inkscape:export-filename="sicilian-american-flag.png"
   inkscape:export-xdpi="196.879"
   inkscape:export-ydpi="196.879"
   xmlns:inkscape="http://www.inkscape.org/namespaces/inkscape"
   xmlns:sodipodi="http://sodipodi.sourceforge.net/DTD/sodipodi-0.dtd"
   xmlns="http://www.w3.org/2000/svg"
   xmlns:svg="http://www.w3.org/2000/svg"
   xmlns:rdf="http://www.w3.org/1999/02/22-rdf-syntax-ns#"
   xmlns:cc="http://creativecommons.org/ns#"
   xmlns:dc="http://purl.org/dc/elements/1.1/">
  <metadata
     id="metadata25854">
    <rdf:RDF>
      <cc:Work
         rdf:about="">
        <dc:format>image/svg+xml</dc:format>
        <dc:type
           rdf:resource="http://purl.org/dc/dcmitype/StillImage" />
      </cc:Work>
    </rdf:RDF>
  </metadata>
  <defs
     id="defs25852">
    <clipPath
       id="p37440f88fb">
      <rect
         x="7.1999998"
         y="7.1999998"
         width="223.2"
         height="203.13596"
         id="rect28236" />
    </clipPath>
    <clipPath
       id="p37440f88fb-2">
      <rect
         x="7.1999998"
         y="7.1999998"
         width="223.2"
         height="203.13596"
         id="rect28236-1" />
    </clipPath>
    <clipPath
       id="p37440f88fb-9">
      <rect
         x="7.1999998"
         y="7.1999998"
         width="223.2"
         height="203.13596"
         id="rect28236-7" />
    </clipPath>
    <clipPath
       id="p99bb27ef76">
      <rect
         x="7.1999998"
         y="7.1999998"
         width="223.2"
         height="204.94019"
         id="rect32913" />
    </clipPath>
    <clipPath
       id="clipPath33495">
      <rect
         x="7.1999998"
         y="7.1999998"
         width="223.2"
         height="204.94019"
         id="rect33493" />
    </clipPath>
    <clipPath
       id="p37440f88fb-3">
      <rect
         x="7.1999998"
         y="7.1999998"
         width="223.2"
         height="203.13596"
         id="rect28236-2" />
    </clipPath>
    <clipPath
       id="p99bb27ef76-5">
      <rect
         x="7.1999998"
         y="7.1999998"
         width="223.2"
         height="204.94019"
         id="rect32913-3" />
    </clipPath>
    <clipPath
       id="clipPath34836">
      <rect
         x="7.1999998"
         y="7.1999998"
         width="223.2"
         height="204.94019"
         id="rect34834" />
    </clipPath>
    <clipPath
       id="p37440f88fb-9-2">
      <rect
         x="7.1999998"
         y="7.1999998"
         width="223.2"
         height="203.13596"
         id="rect28236-7-9" />
    </clipPath>
    <clipPath
       id="p37440f88fb-3-9">
      <rect
         x="7.1999998"
         y="7.1999998"
         width="223.2"
         height="203.13596"
         id="rect28236-2-8" />
    </clipPath>
    <clipPath
       id="p37440f88fb-3-9-6">
      <rect
         x="7.1999998"
         y="7.1999998"
         width="223.2"
         height="203.13596"
         id="rect28236-2-8-9" />
    </clipPath>
  </defs>
  <sodipodi:namedview
     pagecolor="#ffffff"
     bordercolor="#666666"
     borderopacity="1"
     objecttolerance="10"
     gridtolerance="10"
     guidetolerance="10"
     inkscape:pageopacity="0"
     inkscape:pageshadow="2"
     inkscape:window-width="1112"
     inkscape:window-height="687"
     id="namedview25850"
     showgrid="false"
     inkscape:zoom="0.60418686"
     inkscape:cx="329.3683"
     inkscape:cy="278.05967"
     inkscape:window-x="0"
     inkscape:window-y="30"
     inkscape:window-maximized="0"
     inkscape:current-layer="svg25848"
     inkscape:document-rotation="0"
     inkscape:showpageshadow="2"
     inkscape:pagecheckerboard="0"
     inkscape:deskcolor="#d1d1d1" />
  <!-- 9 horizontal stripes - alternating red and yellow, with 5 red and 4 yellow -->
  <!-- Stripe 1 - Red -->
  <!-- Stripe 2 - Yellow -->
  <!-- Stripe 3 - Red -->
  <!-- Stripe 4 - Yellow -->
  <!-- Stripe 5 - Red -->
  <!-- Stripe 6 - Yellow -->
  <!-- Stripe 7 - Red -->
  <!-- Stripe 8 - Yellow -->
  <!-- Stripe 9 - Red -->
  <!-- Blue canton (US flag blue) -->
  <!-- Clean space for trinacria - centered at (120, 88.88) -->
  <!-- You can add your trinacria here in Inkscape -->
  <!-- Border -->
  <g
     transform="matrix(0.57947655,0,0,0.57585482,-1243.939,273.54834)"
     id="g430"
     style="clip-rule:evenodd;fill-rule:evenodd;image-rendering:optimizeQuality;shape-rendering:geometricPrecision;text-rendering:geometricPrecision">
    <path
       d="m 557.44,181.77 c 2.233,5.36 -12.197,10.547 -15.322,14.453 -3.683,4.954 -19.897,19.787 -20.182,24.349 -0.912,14.583 7.181,28.404 13.281,53.125 5.489,22.245 7.596,39.322 10.025,44.4 1.743,3.642 8.625,13.69 7.812,20.183 -1.041,8.333 -8.289,14.888 -13.541,15.495 -5.253,0.607 -16.319,-3.949 -20.27,-4.645 -3.949,-0.694 -41.71,-5.121 -61.806,-13.541 -18.382,-7.702 -48.915,-33.508 -48.915,-33.508 l 18.229,-31.25 c 0,0 32.845,8.679 51.953,18.1 11.399,5.62 38.542,29.947 38.542,29.947 0,0 -14.062,-15.494 -16.537,-29.036 -1.861,-10.19 3.082,-46.051 -2.604,-59.766 -2.225,-5.366 -11.806,-15.104 -9.375,-21.875 2.43,-6.771 13.021,-3.906 20.052,-8.203 3.812,-2.33 11.83,-13.955 21.919,-17.535 8.072,-2.865 10.286,0.868 13.541,0.347 5.211,-3.818 11.461,-5.207 13.198,-1.04 z"
       fill="#ffc8a0"
       stroke="#000000"
       stroke-linejoin="round"
       stroke-width="3"
       id="path178-4"
       style="fill:#ffffff" />
    <path
       d="m 391.2,435.26 c -7.692,-1.061 -1.566,-14.736 -3.387,-19.396 -1.875,-3.887 -7.778,-20.9 -12.177,-25.523 -10.074,-10.584 -29.091,-8.504 -53.55,-15.582 -22.009,-6.368 -37.852,-13.083 -43.465,-13.517 -4.025,-0.312 -16.83,-0.8 -22.046,-4.749 -6.696,-5.069 -8.749,-14.622 -6.648,-19.475 2.101,-4.852 11.58,-12.159 14.156,-15.231 2.577,-3.073 24.304,-28.176 46.357,-42.721 16.637,-10.974 66.16,-24.4 66.16,-24.4 l 10.323,35.192 c 0,0 -19.221,16.697 -38.007,26.745 -20.177,10.792 -58.258,20.905 -58.258,20.905 0,0 21.733,-5.333 34.697,-0.705 9.756,3.483 38.34,25.694 53.061,27.628 5.76,0.756 18.982,-2.671 23.632,2.818 4.648,5.489 -3.127,13.23 -2.922,21.468 0.112,4.466 7.055,13.171 5.111,23.699 -1.556,8.424 -6.832,10.79 -8.008,13.87 -0.76,3.921 -2.4,9.337 -5.029,8.974 z"
       fill="#ffc8a0"
       stroke="#000000"
       stroke-linejoin="round"
       stroke-width="3"
       id="path180-0"
       style="fill:#ffffff" />
    <path
       d="m 246.7,173.78 c 4.201,-4.368 9.027,2.431 18.402,7.465 7.532,4.045 33.333,5.729 38.542,2.604 12.529,-7.517 20.71,-19.67 39.068,-37.314 16.521,-15.876 29.214,-27.282 32.398,-31.925 2.282,-3.331 7.162,-12.892 13.19,-15.435 7.738,-3.265 17.039,-0.266 20.19,3.98 3.151,4.244 7.556,15.42 8.93,19.188 1.373,3.768 10.351,24.396 13.138,50.675 3.284,30.969 -6.569,69.914 -6.569,69.914 l -41.761,-2.815 c 0,0 -5.63,-37.538 -3.285,-51.614 1.499,-8.991 12.124,-49.9 12.124,-49.9 0,0 -9.754,23.952 -20.245,32.865 -7.894,6.708 -41.42,18.274 -50.456,30.056 -3.535,4.609 -6.306,16.96 -14.9,18.002 -9.597,1.163 -16.667,-4.688 -22.917,-13.802 -6.511,-1.562 -14.679,-4.457 -21.354,-8.073 -6.25,-3.385 -7.373,-8.945 -7.292,-12.24 -4.247,-1.913 -10.362,-8.347 -7.203,-11.631 z"
       fill="#ffc8a0"
       stroke="#000000"
       stroke-linejoin="round"
       stroke-width="3"
       id="path182-8"
       style="fill:#ffffff" />
    <path
       d="m 423,258.68 c -0.347,14.757 9.723,26.215 9.723,26.215 0,0 5.095,-5.815 8.594,-5.815 4.08,0 30.209,13.542 34.896,12.674 1.813,-0.336 -2.594,-19.643 -6.338,-29.688 -3.559,-9.549 -10.156,-18.664 -17.447,-21.962 -4.333,-1.959 -16.667,-3.125 -21.875,0.348 -5.209,3.471 -7.435,13.194 -7.553,18.228 z"
       fill="#ebb437"
       stroke="#000000"
       stroke-linecap="round"
       stroke-linejoin="round"
       stroke-width="2"
       id="path184-1"
       style="fill:#ffffff" />
    <path
       d="m 376.25,258.16 c 0.054,12.587 -9.321,26.909 -9.321,26.909 0,0 -5.496,-6.509 -8.995,-6.509 -4.079,0 -31.543,14.756 -36.23,13.888 -1.814,-0.336 3.929,-20.858 7.672,-30.902 3.559,-9.548 10.156,-18.664 17.448,-21.962 4.333,-1.96 16.667,-3.125 21.875,0.347 5.207,3.473 7.53,13.194 7.551,18.229 z"
       fill="#ebb432"
       stroke="#000000"
       stroke-linecap="round"
       stroke-linejoin="round"
       stroke-width="2"
       id="path186-7"
       style="fill:#ffffff" />
    <path
       d="m 336.72,248.35 c -7.7,0.301 -16.52,6.949 -23.52,9.449 1.2,-4.8 6.609,-9.598 7.808,-14.397 -3.299,-0.347 -12.083,3.683 -14.583,5.382 -2.2,3.701 -7.726,14.15 -9.896,19.965 -1.476,-3.299 0.677,-8.29 -1.823,-5.989 -2.9,2.499 -8.594,10.069 -15.191,12.674 0.694,-2.69 4.691,-8.948 2.691,-8.247 -1.2,0.9 -11.5,6.886 -12.5,7.986 -1.215,-2.256 2.426,-5.936 -0.174,-6.336 -1.2,0.8 -12.441,5.162 -13.542,6.162 -1.6,-1.2 4.985,-5.831 3.385,-7.031 -3.2,0.899 -10.229,4.494 -12.76,4.08 -0.968,-0.157 4.253,-3.939 1.302,-3.992 -5.068,-0.091 -11.214,0.862 -12.326,-10e-4 3.5,-2 18.209,-6.955 19.909,-10.556 1.1,-1.6 -7.231,-2.28 -7.93,-3.681 2.1,-1.1 10.851,-4.166 13.542,-4.514 1,-1.5 0.703,-0.991 1.302,-2.691 -3.212,-1.302 -9.846,-0.581 -11.545,-0.781 3.9,-2.1 15.885,-6.163 21.528,-6.771 -3.1,-2.101 -7.785,-2.377 -11.285,-2.778 3.199,-1.5 8.288,-1.084 11.788,-0.884 5.301,0.399 7.13,-0.23 12.431,-0.331 -3.2,-1.3 -6.509,-2.486 -9.809,-3.385 12.966,-2.213 19.531,6.771 33.579,5.315 -4.933,-2.365 -8.26,-6.912 -9.36,-10.611 12.934,4.253 24.914,1.91 34.201,2.344 5.8,0.1 17.03,3.085 22.83,3.385 2.431,-9.635 8.854,-15.321 20.92,-15.538 3.646,-4.427 12.5,-13.455 23.525,-4.861 9.461,-8.333 14.539,1.432 18.445,1.432 15.104,0 20.79,10.114 22.18,14.801 3.124,-3.298 3.906,-7.031 5.381,-9.201 1.216,-1.91 2.258,-3.212 4.341,-5.035 0.199,-2 -0.348,-3.993 0.954,-7.378 0.868,-2.777 1.65,-4.861 1.39,-7.118 -1.389,-2.344 -3.906,-4.774 -3.56,-7.986 -2.5,-4 -4.809,-9.61 -5.208,-14.41 -0.601,-8.099 -0.158,-10.763 1.042,-18.663 0.781,3.472 2.04,5.354 2.43,4.861 0.858,-1.084 0.175,-12.207 1.129,-14.236 0.955,2.344 2.994,4.708 3.732,3.038 0.87,-1.968 0.662,-12.149 1.042,-14.583 0.3,0 0.984,11.2 3.386,13.194 -0.501,-2.5 0.743,-9.311 2.344,-11.111 0.781,1.389 1.403,4.596 2.604,5.295 1.042,-1.476 3.653,-13.119 3.553,-15.918 1.9,3.6 2.351,11.317 2.177,15.571 1.389,1.91 3.125,4.861 3.732,9.288 1.216,-1.823 3.385,-5.255 3.385,-8.854 2.604,10.677 -1.041,20.66 0.781,21.875 0.545,-0.334 2.952,-2.517 4.255,-7.726 1.128,11.632 -0.608,16.841 -1.997,20.052 0.521,0.174 2.951,-0.781 3.992,-1.823 -1.735,6.51 -5.381,12.152 -11.544,14.757 -1.389,6.336 -4.466,5.254 -7.466,8.854 0.259,4.948 -0.521,12.5 -2.604,17.188 0.954,-1.215 13.977,-11.632 22.396,-23.351 -0.26,7.118 -3.646,14.583 -7.552,22.135 -2.604,4.34 -6.815,9.458 -9.114,11.458 -5.469,5.122 -11.11,9.765 -17.23,11.588 -7.683,4.948 -0.076,15.123 -6.12,21.615 -3.516,3.776 -8.463,5.339 -13.802,3.516 0.253,4.946 2.518,10.851 8.333,15.364 -1.562,20.443 -17.101,28.386 -24.609,33.594 1.736,3.298 1.579,6.939 1.433,7.553 -0.8,2.599 -0.944,1.746 -0.745,4.445 1.001,4.601 4.601,7.9 8.001,10.9 -1.7,-0.2 -3.3,-0.4 -5,-0.6 1.4,2.8 3.2,5.699 6.5,6.399 5,1.2 13.121,4.378 17.72,6.979 -4.599,2.499 -12.713,-0.298 -17.013,2.604 2.43,3.125 6.787,5.762 9.893,6.518 4.797,1.3 9.897,1.601 14.797,1.401 2.1,0.101 7.597,0.851 10.028,1.72 7.552,2.517 11.065,5.683 16.666,9.982 -1.4,-0.1 -5.295,-0.302 -6.694,-0.402 2.1,2.801 14.391,6.991 16.591,9.69 -3.56,0.868 -6.32,2.24 -3.82,4.34 2.2,1.101 7.102,2.533 9.201,3.733 -1.899,-0.499 -7.672,0.337 -9.572,-0.063 3.583,2.407 11.136,4.316 15.649,5.879 -3.56,1.042 -11.629,0.465 -13.629,-0.435 1.997,2.345 3.386,3.994 5.469,5.903 -5.729,-0.955 -11.775,-3.894 -13.976,-5.295 0.087,1.736 2.518,4.688 4.254,7.292 -2.7,0.1 -14.746,-5.059 -16.146,-6.858 -1.499,0.601 1.631,5.137 2.431,6.338 -3.398,-1 -10.59,-6.077 -12.761,-7.64 0.261,2.691 0.954,5.903 0.521,7.031 -4.254,-6.423 -19.879,-11.284 -21.268,-22.482 -2.899,-2 -4.745,-3.934 -5.545,-7.434 -0.3,-2.001 -2.823,-4.8 -4.524,-5.501 -0.043,6.111 -1.783,15.539 -2.083,15.539 -2.8,-9.602 -5.632,-14.857 -11.632,-22.657 -1.909,-1.737 -4.004,-6.924 -5.903,-6.424 -1.4,0.302 -3.414,4.769 -4.514,4.167 -1.959,-0.165 1.572,-6.251 0.348,-8.16 -1.027,-1.602 -6.945,0.868 -9.375,-0.868 -1.601,-6.2 -1.455,-11.669 -0.955,-17.969 0.5,-2.3 -2.518,-3.819 -3.038,-7.031 -0.701,-3.199 2.229,-7.304 1.128,-10.503 -12.413,-6.163 -22.179,-14.106 -23.481,-31.554 0,0 0.998,-7.422 5.599,-13.933 -5.729,-1.823 -12.109,-6.467 -13.672,-14.974 -7.682,11.588 -19.922,12.891 -25.781,12.37 1.432,-6.509 6.38,-13.931 8.203,-15.45 z"
       stroke="#000000"
       stroke-linecap="round"
       stroke-linejoin="round"
       id="path188" />
    <g
       fill="none"
       stroke="#000000"
       stroke-linecap="round"
       id="g210">
      <path
         d="m 362.33,265.62 c -3.299,4.948 -4.081,12.848 -4.081,12.848"
         id="path190" />
      <path
         d="m 358.85,261.11 c -4.34,6.25 -5.902,18.229 -5.902,18.229"
         id="path192" />
      <path
         d="m 354.6,257.2 c -5.035,8.073 -7.292,24.653 -7.292,24.653"
         id="path194" />
      <path
         d="m 348.44,259.03 c -8.594,14.062 -8.247,26.303 -8.247,26.303"
         id="path196" />
      <path
         d="m 339.58,264.24 c -8.594,13.715 -7.552,24.652 -7.552,24.652"
         id="path198" />
      <path
         d="m 435.33,267.54 c 3.559,4.428 4.167,11.632 4.167,11.632"
         id="path200" />
      <path
         d="m 439.32,265.8 c 3.385,3.906 5.469,13.716 5.469,13.716"
         id="path202" />
      <path
         d="m 443.4,262.24 c 5.208,6.338 7.031,19.358 7.031,19.358"
         id="path204" />
      <path
         d="m 447.48,257.29 c 9.636,13.541 9.983,27.257 9.983,27.257"
         id="path206" />
      <path
         d="m 457.03,260.5 c 8.594,13.715 8.507,28.038 8.507,28.038"
         id="path208" />
    </g>
    <path
       d="m 399.57,242.01 c 10.417,0 28.109,4.906 29.427,24.305 1.91,28.125 -21.181,44.792 -29.341,44.792 -9.288,0 -31.076,-16.319 -29.166,-45.573 1.256,-19.229 18.83,-23.524 29.08,-23.524 z"
       fill="#ffc8a0"
       stroke="#000000"
       stroke-linecap="round"
       stroke-linejoin="round"
       stroke-width="2"
       id="path212"
       style="fill:#ffffff" />
    <path
       d="m 419.36,271.44 c 0,0 -3.126,-1.866 -6.077,-1.822 -2.951,0.043 -6.076,2.083 -6.076,2.083 0,0 3.689,2.17 6.38,2.171 2.691,10e-4 5.773,-2.432 5.773,-2.432 z"
       stroke="#000000"
       stroke-linecap="round"
       stroke-linejoin="round"
       id="path214" />
    <path
       d="m 392.45,271.53 c 0,0 -3.559,-2.301 -5.513,-2.604 -1.953,-0.303 -6.64,1.562 -6.64,1.562 0,0 3.603,2.777 6.033,3.039 2.431,0.261 6.12,-1.997 6.12,-1.997 z"
       stroke="#000000"
       stroke-linecap="round"
       stroke-linejoin="round"
       id="path216" />
    <path
       d="m 421.09,265.19 c 0,0 -3.299,-2.908 -9.028,-2.734 -5.729,0.174 -8.55,3.646 -9.244,5.078 -0.442,0.912 -0.26,11.675 0.087,13.021 0.347,1.346 3.732,4.86 3.298,6.597 -0.434,1.737 -2.127,0.955 -3.342,1.648 -1.215,0.696 -2.213,1.562 -3.038,1.562 -1.562,0 -1.779,-0.913 -3.472,-1.432 -1.53,-0.471 -3.473,0 -3.993,-1.433 -0.518,-1.424 1.605,-3.212 1.605,-3.212"
       fill="none"
       stroke="#000000"
       stroke-linecap="round"
       stroke-linejoin="round"
       id="path218" />
    <path
       d="m 393.75,265.36 c 0,0 -2.387,-2.777 -7.986,-2.907 -5.599,-0.131 -9.071,3.429 -9.461,4.688 -0.39,1.259 0.478,2.517 0.478,2.517"
       fill="none"
       stroke="#000000"
       stroke-linecap="round"
       stroke-linejoin="round"
       id="path220" />
    <path
       d="m 420.49,275.52 c 0,0 -3.429,3.386 -7.205,3.386 -3.776,0 -8.94,-3.906 -8.94,-3.906"
       fill="none"
       stroke="#000000"
       stroke-linecap="round"
       stroke-linejoin="round"
       id="path222" />
    <path
       d="m 392.93,275.91 c 0,0 -4.341,2.865 -7.118,2.865 -2.778,0 -4.515,-1.085 -4.515,-1.085"
       fill="none"
       stroke="#000000"
       stroke-linecap="round"
       stroke-linejoin="round"
       id="path224" />
    <path
       d="m 399.48,298.48 c -0.89,0 -2.361,-0.646 -2.361,-0.646 -1.003,-0.113 -3.933,-0.049 -5.517,-0.353 -1.685,-0.323 -3.736,-1.946 -3.928,-2.213 -0.167,-0.233 0.373,-0.689 0.606,-0.857 0.235,-0.167 0.683,-0.166 0.728,0.119 0.163,1.042 1.908,2.024 2.789,2.171 2.344,0.391 5.625,-0.99 5.755,-0.891 l 1.919,0.443 1.894,-0.5 c 0.122,-0.1 3.802,1.077 6.492,0.859 0.828,-0.066 2.474,-0.933 2.851,-2.107 0.087,-0.274 0.51,-0.258 0.733,-0.076 0.223,0.181 0.59,0.702 0.408,0.926 -0.207,0.254 -2.148,1.67 -3.797,2.061 -1.486,0.353 -4.927,0.326 -6.25,0.5 10e-4,0 -1.28,0.564 -2.322,0.564 z"
       id="path226" />
    <path
       d="m 404.69,301.3 c 0,0 -3.45,1.498 -5.078,1.498 -2.019,0 -5.426,-1.498 -5.426,-1.498"
       fill="none"
       stroke="#000000"
       stroke-linecap="round"
       stroke-linejoin="round"
       stroke-width="1.5"
       id="path228" />
    <g
       fill="#ebb437"
       stroke="#ebb437"
       stroke-linecap="round"
       stroke-linejoin="round"
       stroke-width="0.5"
       id="g320"
       style="fill:#ffffff">
      <path
         d="m 429.17,231.29 c -0.868,0.043 -2.344,-2.647 -2.344,-4.688 0,-2.04 -0.173,-3.906 -1.649,-5.381 -1.13,-1.129 -3.212,-1.302 -4.861,-1.237 -1.649,0.065 -4.774,0.543 -4.817,-1.172 -0.044,-1.714 3.017,-3.754 6.163,-3.754 3.146,0 5.815,1.801 6.987,3.472 1.172,1.671 1.966,4.625 2.041,6.294 0.085,1.909 -0.1,6.396 -1.52,6.466 z"
         id="path230"
         style="fill:#ffffff" />
      <path
         d="m 378.12,219.21 c 0.26,0.89 -6.242,4.874 -8.203,6.25 -3.06,2.148 -5.815,4.883 -5.208,8.529 0.476,2.858 2.57,4.266 4.427,4.73 2.604,0.651 5.946,-0.26 5.946,-0.26 0,0 0.282,1.671 1.389,2.388 1.107,0.716 3.472,1.605 3.472,1.605 0,0 -4.362,1.888 -9.375,1.628 -5.013,-0.261 -9.57,-3.386 -9.961,-7.748 -0.391,-4.362 0.261,-7.617 2.604,-10.612 1.598,-2.042 4.752,-4.688 7.552,-5.794 2.164,-0.856 7.097,-1.606 7.357,-0.716 z"
         id="path232"
         style="fill:#ffffff" />
      <ellipse
         transform="matrix(-0.838,0.5457,-0.5457,-0.838,821.68,224.34)"
         cx="377.54001"
         cy="234.14999"
         rx="2.4089999"
         ry="1.1390001"
         id="ellipse234"
         style="fill:#ffffff" />
      <path
         d="m 391.6,226.63 c 0,0 -6.185,-0.065 -8.333,1.562 -1.807,1.369 -2.213,2.604 -1.823,3.516 0.391,0.912 1.758,1.758 4.492,0.651 3.11,-1.258 5.664,-5.729 5.664,-5.729 z"
         id="path236"
         style="fill:#ffffff" />
      <ellipse
         transform="matrix(-0.9441,0.3297,-0.3297,-0.9441,833.64,303.55)"
         cx="391.07999"
         cy="222.46001"
         rx="5.013"
         ry="2.4089999"
         id="ellipse238"
         style="fill:#ffffff" />
      <path
         d="m 398.5,217.51 c 1.822,-2.019 -0.679,-6.445 -6.532,-6.445 -5.469,0 -10.606,8.437 -11.927,9.886 -2.182,2.395 -6.627,6.588 -11.445,9.5 -2.909,2.033 0.086,5.483 2.755,5.028 1.099,-0.188 8.326,-6.663 10.091,-8.594 2.083,-2.279 4.439,-5.638 5.403,-7.031 1.172,-1.693 3.3,-3.711 4.818,-3.711 3.321,0 5.357,3.005 6.837,1.367 z"
         id="path240"
         style="fill:#ffffff" />
      <path
         d="m 414.71,215.88 c 0.718,-1.301 -0.087,-4.167 -5.426,-4.167 -4.688,0 -9.802,8.79 -10.785,10.417 -1.628,2.691 -3.624,6.467 -8.442,9.766 4.948,0.261 8.052,0 8.052,0 0,0 2.994,-2.669 4.166,-4.948 1.172,-2.279 2.148,-5.729 3.061,-7.096 0.911,-1.367 2.233,-2.904 3.58,-3.255 1.497,-0.391 4.752,1.171 5.794,-0.717 z"
         id="path242"
         style="fill:#ffffff" />
      <path
         d="m 409.55,218.79 c 0.607,-0.781 3.516,0.521 4.036,1.042 0.521,0.521 2.561,5.382 4.904,6.988 2.344,1.606 4.819,2.17 5.687,2.561 0.868,0.391 2.561,3.082 2.387,4.601 -0.174,1.519 -5.469,4.948 -5.469,4.948 0,0 0.869,-4.688 -1.996,-6.554 -2.277,-1.483 -6.511,-0.998 -8.03,-1.259 -1.519,-0.26 -6.554,-2.04 -6.51,-3.472 0.043,-1.433 2.127,-4.774 2.127,-4.774 0,0 3.992,3.906 4.947,2.908 0.956,-0.999 -2.691,-6.207 -2.083,-6.989 z"
         id="path244"
         style="fill:#ffffff" />
      <path
         d="m 418.74,236.08 c -0.036,-0.943 -6.027,-2.916 -8.943,-2.965 -2.915,-0.049 -7.178,0.83 -7.581,2.673 -0.341,1.555 3.5,4.617 4.715,4.617 1.214,0 1.991,-2.479 3.838,-3.014 1.846,-0.535 8.068,1.313 7.971,-1.311 z"
         stroke-width="1"
         id="path246"
         style="fill:#ffffff" />
      <path
         d="m 419.27,251.04 c -3.622,0.499 -10.63,-0.801 -13.541,-2.995 -1.74,-1.311 -9.433,-8.562 -13.281,-9.245 -4.492,-0.797 -10.417,5.469 -14.695,0.801 -1.845,-2.013 3.755,-4.19 6.103,-4.824 2.347,-0.633 9.114,-1.705 11.978,-0.925 2.864,0.78 9.007,6.188 11.589,8.38 2.579,2.193 10.024,7.332 11.847,8.808 z"
         stroke="#000000"
         stroke-width="2"
         id="path248"
         style="fill:#ffffff" />
      <path
         d="m 433.72,221.68 c 2.084,-0.456 3.061,5.794 3.19,8.789 0.129,2.995 -0.911,9.375 -1.953,9.375 -1.042,0 -1.692,-1.823 -1.692,-1.823 0,0 1.106,-4.102 -0.912,-5.925 0.391,-1.562 0.977,-2.995 0.781,-5.013 -0.196,-2.018 -0.815,-5.097 0.586,-5.403 z"
         id="path250"
         style="fill:#ffffff" />
      <path
         d="m 431.57,233.13 c 3.386,1.318 -3.727,9.856 -5.269,10.766 -3.023,1.785 -11.971,2.313 -13.979,1.298 -2.341,-1.183 -5.64,-4.134 -5.64,-4.134 0,0 11.246,1.82 15.538,0.086 4.958,-2 7.264,-8.828 9.35,-8.016 z"
         stroke="#000000"
         stroke-width="1"
         id="path252"
         style="fill:#ffffff" />
      <ellipse
         transform="matrix(0.8633,-0.5046,0.5046,0.8633,-64.27,252.22)"
         cx="433.53"
         cy="244.77"
         rx="1.931"
         ry="3.971"
         id="ellipse254"
         style="fill:#ffffff" />
      <ellipse
         transform="matrix(0.8505,-0.526,0.526,0.8505,-65.497,262.11)"
         cx="428.32001"
         cy="246.27"
         rx="1.541"
         ry="2.082"
         id="ellipse256"
         style="fill:#ffffff" />
      <path
         d="m 439.41,230.25 c -0.044,5.339 -1.997,9.766 -1.866,11.198 0.13,1.432 1.562,2.56 3.038,3.428 1.477,0.869 3.386,1.562 3.906,1.085 0.521,-0.477 0.608,-2.04 0.131,-2.908 -0.479,-0.868 -2.258,-1.085 -2.692,-2.474 -0.434,-1.388 0.044,-2.995 -0.26,-4.948 -0.305,-1.952 -1.605,-4.556 -2.257,-5.381 z"
         id="path258"
         style="fill:#ffffff" />
      <path
         d="m 413.63,246.18 c 2.275,0.104 8.371,-0.895 9.636,-0.173 1.266,0.721 5.497,6.931 5.902,8.68 0.403,1.75 0.057,4.427 -1.057,5.713 -4.412,-4.151 -10.488,-11.529 -14.481,-14.22 z"
         stroke="#000000"
         stroke-width="2"
         id="path260"
         style="fill:#ffffff" />
      <path
         d="m 430.6,249.7 c -1.995,0.521 1.042,5.99 0.912,7.292 -0.131,1.302 -2.04,2.907 -1.996,3.559 0.044,0.652 3.992,3.342 6.423,3.342 1.998,0 5.989,-3.081 6.641,-4.557 0.652,-1.476 1.302,-4.991 0.825,-7.552 -0.478,-2.561 -4.602,-5.251 -4.602,-5.251 0,0 -1.084,2.083 -1.128,3.689 -0.044,1.605 1.259,3.559 1.433,4.861 0.174,1.302 -0.738,3.56 -1.216,4.123 -0.478,0.564 -3.081,1.129 -3.862,0.521 -0.781,-0.608 1.648,-3.342 1.648,-5.382 0,-1.823 -3.082,-5.166 -5.078,-4.645 z"
         id="path262"
         style="fill:#ffffff" />
      <path
         d="m 393.75,239.58 c 2.212,0 6.25,4.167 6.25,4.167 0,0 -6.666,3.736 -9.859,4.535 -3.195,0.799 -8.497,1.117 -11.55,2.057 -3.053,0.94 -5.785,8.372 -8.557,8.231 -2.772,-0.141 -1.926,-4.838 -1.926,-4.838 0,0 0.799,-5.215 4.321,-7.282 3.523,-2.067 9.208,-2.114 12.824,-2.865 3.618,-0.753 5.256,-4.005 8.497,-4.005 z"
         stroke="#000000"
         stroke-width="2"
         id="path264"
         style="fill:#ffffff" />
      <path
         d="m 367.27,246.96 c 0,0 -0.737,3.429 -1.605,3.95 -0.869,0.521 -5.339,-4.514 -5.208,-6.858 0.13,-2.35 6.813,2.908 6.813,2.908 z"
         id="path266"
         style="fill:#ffffff" />
      <ellipse
         transform="matrix(0.7859,-0.6183,0.6183,0.7859,-79.027,279.48)"
         cx="364.13"
         cy="253.88"
         rx="1.012"
         ry="2.684"
         id="ellipse268"
         style="fill:#ffffff" />
      <path
         d="m 359.3,246.78 c -1.897,-1.314 -2.918,1.747 -2.918,4.378 0,3.162 1.605,6.664 4.329,9.631 2.724,2.967 9.343,4.663 9.343,4.663 l 0.911,-5.556 c 0,0 -6.162,0.168 -9.038,-3.388 -2.676,-3.307 -0.73,-8.415 -2.627,-9.728 z"
         stroke="#000000"
         stroke-width="1"
         id="path270"
         style="fill:#ffffff" />
      <path
         d="m 359.38,241.19 c -3.646,2.561 -5.078,7.509 -5.078,7.509 0,0 -1.78,-6.857 -1.736,-9.505 0.043,-2.648 1.649,-5.946 3.646,-5.772 1.996,0.173 1.302,5.121 3.168,7.768 z"
         id="path272"
         style="fill:#ffffff" />
      <path
         d="m 347.57,242.62 c 2.344,0 3.385,7.725 3.298,8.941 -0.087,1.216 -3.125,4.86 -6.597,7.031 -3.473,2.17 -8.637,3.56 -10.156,2.344 -1.52,-1.216 2.167,-8.184 4.297,-10.981 2.213,-2.908 6.814,-7.335 9.158,-7.335 z"
         id="path274"
         style="fill:#ffffff" />
      <path
         d="m 428.58,279.88 c 0.3,1.035 1.643,1.164 3.301,0.683 1.658,-0.481 2.208,-1.926 1.907,-2.961 -0.3,-1.036 -1.338,-1.271 -2.996,-0.791 -1.658,0.481 -2.514,2.034 -2.212,3.069 z"
         id="path276"
         style="fill:#ffffff" />
      <path
         d="m 435.03,282.03 c 0,0 -3.972,1.497 -6.901,1.389 0,0.825 -1.823,4.254 -1.823,4.254 0,0 6.315,0.261 7.812,-1.085 1.498,-1.346 0.912,-4.558 0.912,-4.558 z"
         id="path278"
         style="fill:#ffffff" />
      <path
         d="m 435.16,288.93 c 0,0 -6.38,1.172 -9.636,0.737 -0.195,0.955 -1.302,2.257 -1.302,2.257 0,0 4.731,3.646 7.031,2.734 2.301,-0.911 3.907,-5.728 3.907,-5.728 z"
         id="path280"
         style="fill:#ffffff" />
      <path
         d="m 430.47,296.74 c 0,0 -5.403,-1.042 -7.747,-2.475 -0.456,1.172 -1.823,2.604 -1.823,2.604 0,0 2.474,3.19 4.883,3.125 2.409,-0.065 4.687,-3.254 4.687,-3.254 z"
         id="path282"
         style="fill:#ffffff" />
      <path
         d="m 426.3,301.82 c 0,0 -5.664,-1.303 -7.096,-2.409 -0.456,0.911 -2.865,3.19 -2.865,3.19 0,0 2.084,2.539 4.232,2.344 2.148,-0.195 5.729,-3.125 5.729,-3.125 z"
         id="path284"
         style="fill:#ffffff" />
      <path
         d="m 414.19,304.82 5.859,2.214 c 0,0 -3.189,2.8 -5.989,2.93 -2.8,0.13 -3.841,-1.628 -3.841,-1.628 z"
         id="path286"
         style="fill:#ffffff" />
      <path
         d="m 370.18,276.3 c 0.13,1.562 -0.719,1.294 -2.377,0.813 -1.658,-0.481 -2.758,-1.711 -2.457,-2.747 0.3,-1.035 1.483,-1.281 3.142,-0.801 1.657,0.482 1.603,1.661 1.692,2.735 z"
         id="path288"
         style="fill:#ffffff" />
      <path
         d="m 364.19,277.34 c 0,0 3.27,3.346 7.319,4.008 -0.154,0.811 1.405,4.977 1.405,4.977 0,0 -5.745,-1.344 -7.552,-3.06 -1.807,-1.716 -1.172,-5.925 -1.172,-5.925 z"
         id="path290"
         style="fill:#ffffff" />
      <path
         d="m 365.36,286.72 c 0,0 4.968,1.817 8.919,2.864 0.261,1.303 1.367,3.776 1.367,3.776 0,0 -5.664,0.586 -7.422,-0.521 -2.55,-1.605 -2.864,-6.119 -2.864,-6.119 z"
         id="path292"
         style="fill:#ffffff" />
      <path
         d="m 369.27,295.57 c 0,0 5.507,0.672 8.594,0.781 0.13,1.106 2.083,3.06 2.083,3.06 0,0 -4.098,2.555 -6.51,1.106 -2.413,-1.448 -4.167,-4.947 -4.167,-4.947 z"
         id="path294"
         style="fill:#ffffff" />
      <path
         d="m 375.78,303.26 c 0,0 4.492,-0.977 5.924,-2.083 0.456,0.911 2.344,2.734 2.344,2.734 0,0 -1.953,2.409 -4.102,2.214 -2.149,-0.195 -4.166,-2.865 -4.166,-2.865 z"
         id="path296"
         style="fill:#ffffff" />
      <path
         d="m 386.2,306.32 -3.634,1.562 c 0,0 1.028,2.055 3.829,2.148 1.953,0.064 2.799,-1.433 2.799,-1.433 z"
         id="path298"
         style="fill:#ffffff" />
      <path
         d="m 408.2,310.03 c -2.214,1.822 -5.859,2.669 -5.859,2.669 0,0 7.489,12.107 9.636,9.961 3.254,-3.255 -1.303,-10.807 -3.777,-12.63 z"
         id="path300"
         style="fill:#ffffff" />
      <path
         d="m 397.33,313.35 c 0,0 -1.889,1.692 -3.386,2.474 3.125,1.433 7.683,9.505 9.114,5.859 1.433,-3.646 -5.728,-8.333 -5.728,-8.333 z"
         id="path302"
         style="fill:#ffffff" />
      <path
         d="m 405.34,322.85 c 0,0 -1.209,2.569 -0.977,4.036 0.586,3.711 9.114,8.073 9.18,4.818 0.064,-3.256 -8.203,-8.854 -8.203,-8.854 z"
         id="path304"
         style="fill:#ffffff" />
      <path
         d="m 391.21,310.16 2.93,1.823 c 0,0 -2.019,3.385 -4.297,2.344 -2.279,-1.042 1.367,-4.167 1.367,-4.167 z"
         id="path306"
         style="fill:#ffffff" />
      <ellipse
         cx="391.10999"
         cy="321.32001"
         rx="2.8970001"
         ry="3.9389999"
         id="ellipse308"
         style="fill:#ffffff" />
      <path
         d="m 397.14,322.59 c -0.781,1.237 -1.953,3.061 -1.953,3.061 0,0 1.758,2.864 2.278,5.533 1.433,0.131 3.19,-1.302 3.19,-3.906 0,-1.823 -2.343,-4.557 -3.515,-4.688 z"
         id="path310"
         style="fill:#ffffff" />
      <path
         d="m 403.19,330.73 -1.237,1.497 c 0,0 2.995,6.315 4.883,8.528 1.302,-6.64 -3.646,-10.025 -3.646,-10.025 z"
         id="path312"
         style="fill:#ffffff" />
      <path
         d="m 409.77,335.61 c -0.456,0.781 -0.325,4.166 0.456,5.924 0.781,1.758 4.112,5.311 6.836,6.186 5.469,1.758 17.708,0.977 17.708,0.977 0,0 -10.026,-4.297 -14.714,-6.771 -3.768,-1.988 -6.25,-6.705 -6.25,-6.705 0,0 -3.58,-0.392 -4.036,0.389 z"
         id="path314"
         style="fill:#ffffff" />
      <path
         d="m 392.51,327.41 c -1.562,0 -2.669,1.692 -2.669,3.775 0,1.562 1.433,4.818 3.255,4.948 1.823,0.13 2.019,-4.167 2.019,-4.167 0,0 -1.043,-4.556 -2.605,-4.556 z"
         id="path316"
         style="fill:#ffffff" />
      <path
         d="m 399.28,333.33 c 0,0 -1.722,2.245 -1.367,4.167 0.911,4.948 5.823,12.835 8.203,15.039 2.669,2.474 5.338,6.698 6.25,8.138 2.474,3.906 7.161,13.803 7.161,13.803 0,0 0.521,-7.292 -1.302,-12.761 -0.634,-1.902 -3.842,-6.185 -5.209,-8.073 -1.367,-1.888 -4.492,-4.297 -6.575,-7.161 -2.083,-2.864 -7.161,-13.152 -7.161,-13.152 z"
         id="path318"
         style="fill:#ffffff" />
    </g>
    <g
       fill="#ebb437"
       stroke="#ebb437"
       stroke-linecap="round"
       stroke-linejoin="round"
       id="g428">
      <path
         d="m 395.31,338.28 c 0.391,2.995 2.734,6.511 2.734,6.511 0,0 -4.569,0.061 -5.859,-2.019 -1.172,-1.888 -0.521,-4.102 -0.521,-4.102 0,0 1.954,-0.194 3.646,-0.39 z"
         stroke-width="0.5"
         id="path322"
         style="fill:#ffffff" />
      <path
         d="m 415.62,351.5 c -1.692,1.237 11.676,13.087 16.494,24.546 0.846,-0.326 4.144,-4.103 5.056,-8.855 2.148,1.042 4.883,1.562 8.072,1.758 3.19,0.195 7.748,-0.195 7.748,-0.195 0,0 -1.758,-5.599 -5.469,-6.641 -3.711,-1.042 -7.553,0.521 -10.808,-0.13 -3.254,-0.652 -20.042,-11.251 -21.093,-10.483 z"
         id="path324" />
      <path
         d="m 453.19,363.87 3.32,4.948 5.403,0.13 c 0,0 -1.106,-3.06 -3.711,-4.427 -1.264,-0.664 -5.012,-0.651 -5.012,-0.651"
         id="path326" />
      <polygon
         points="455.6,371.29 449.02,371.29 452.67,374.68 459.9,374.74 "
         id="polygon328" />
      <polygon
         points="465.3,375.39 471.03,375.65 465.82,371.09 460.94,371.16 "
         id="polygon330" />
      <polygon
         points="444.66,371.29 439,371.09 444.47,376.43 448.83,376.82 448.7,374.8 "
         id="polygon332" />
      <polygon
         points="437.11,374.28 434.7,377.6 438.61,381.97 442.9,382.36 442.25,378.26 "
         id="polygon334" />
      <polygon
         points="451.89,385.55 451.82,382.42 448.96,379.1 445.83,379.1 445.7,382.62 449.28,385.68 "
         id="polygon336" />
      <polygon
         points="448.89,391.93 448.89,389.26 444.47,384.64 441.02,384.83 441.15,387.44 446.55,391.99 "
         id="polygon338" />
      <polygon
         points="459.44,382.03 459.31,379.82 455.92,377.21 452.28,377.15 452.34,379.04 455.73,381.97 "
         id="polygon340" />
      <polygon
         points="461.26,377.6 467.71,381.84 470.7,381.84 470.7,379.75 467.25,377.47 "
         id="polygon342" />
      <polygon
         points="468.49,387.89 468.56,385.48 464.26,381.58 461.65,381.51 461.91,384.24 464.84,387.7 "
         id="polygon344" />
      <polygon
         points="460.29,392.32 456.51,387.96 456.44,385.16 459.9,385.35 463.8,389.45 463.67,392.71 "
         id="polygon346" />
      <polygon
         points="451.04,388.67 454.1,392.9 457.42,393.1 453.84,386.65 453.26,388.74 "
         id="polygon348" />
      <polygon
         points="479.3,386.46 479.23,383.85 475.46,380.47 472.92,380.53 472.85,383.72 476.37,385.87 "
         id="polygon350" />
      <polygon
         points="472.79,395.77 472.46,393.29 468.42,390.04 465.82,390.1 465.82,392.9 469.86,395.7 "
         id="polygon352" />
      <polygon
         points="480.01,393.36 479.36,390.95 473.63,386.2 470.9,386.13 470.96,389.19 476.24,393.03 "
         id="polygon354" />
      <path
         d="m 479.17,202.78 c -14.323,17.014 -33.767,32.291 -33.767,32.291 0,0 2.836,2.601 6.856,1.563 5.382,-1.389 16.902,-15.141 19.618,-18.837 3.126,-4.254 5.904,-9.636 7.293,-15.017 z"
         id="path356" />
      <path
         d="m 452.17,217.27 c 0.607,1.736 1.042,5.989 0.347,7.726 -0.694,1.736 -8.507,7.466 -8.507,7.466 l -0.607,-3.56 c -0.001,0 5.554,-5.555 8.767,-11.632 z"
         id="path358" />
      <path
         d="m 468.23,192.54 c -3.43,0.456 -11.154,0.586 -14.41,0 -0.478,2.496 3.112,5.386 2.951,7.292 -0.304,3.602 -2.56,7.053 -2.776,9.896 -0.218,2.843 1.909,11.806 1.909,11.806 0,0 3.429,-5.057 4.514,-8.854 1.084,-3.798 0.565,-9.31 1.129,-11.545 0.563,-2.237 7.053,-4.038 6.683,-8.595 z"
         id="path360" />
      <path
         d="m 475.32,178.12 -5.533,5.143 v 6.771 c 0,0 4.036,-2.799 5.143,-5.273 0.726,-1.623 0.39,-6.641 0.39,-6.641 z"
         id="path362" />
      <path
         d="m 467.32,182.23 c 0,0 0.391,5.99 -0.586,7.162 -0.977,1.172 -2.344,0.586 -2.344,0.586 l -0.13,-5.599 z"
         id="path364" />
      <path
         d="m 461.46,189.52 -0.064,-8.854 c 0,0 -2.67,0.781 -2.67,2.409 0,1.628 2.734,6.445 2.734,6.445 z"
         id="path366" />
      <path
         d="m 457.68,189.52 -3.19,-8.724 -3.646,3.646 c 0,0 0.13,4.492 1.692,5.273 1.562,0.781 5.144,-0.195 5.144,-0.195 z"
         id="path368" />
      <polygon
         points="471.81,177.15 470.44,169.34 474.22,166.02 475.52,174.48 "
         id="polygon370" />
      <polygon
         points="469.66,178.58 468.29,180.14 466.34,174.48 467.97,171.62 "
         id="polygon372" />
      <path
         d="m 463.22,169.79 1.237,11.068 c 0,0 -2.539,-2.734 -2.8,-4.623 -0.259,-1.888 1.563,-6.445 1.563,-6.445 z"
         id="path374" />
      <polygon
         points="459.9,174.87 456.84,179.1 455.27,173.11 457.29,168.23 "
         id="polygon376" />
      <polygon
         points="450.26,180.92 448.37,177.8 448.44,172.79 450.13,169.99 453.32,172.79 453.32,178.26 "
         id="polygon378" />
      <polygon
         points="450.2,162.11 452.15,158.66 454.49,160.42 455.6,166.15 453.52,168.94 450.39,166.73 "
         id="polygon380" />
      <polygon
         points="458.85,155.47 456.97,159.5 458.01,165.76 460.68,167.71 460.55,159.96 "
         id="polygon382" />
      <polygon
         points="464.19,157.75 462.76,160.16 462.7,166.02 466.34,168.88 466.54,162.17 "
         id="polygon384" />
      <polygon
         points="470.64,157.16 468.49,161.2 468.68,167.71 471.16,165.69 471.74,160.42 "
         id="polygon386" />
      <polygon
         points="464.78,144.99 462.96,149.87 463.15,155.01 467.32,157.29 469.4,153.45 467.06,146.88 "
         id="polygon388" />
      <path
         d="m 349.87,234.5 c 0,0 -4.102,-1.888 -7.422,-2.474 -3.32,-0.586 -15.82,-0.391 -20.442,-0.521 -4.623,-0.13 -14.974,-1.367 -17.708,-2.474 0,0.977 0.065,3.581 4.818,5.599 4.752,2.019 19.596,0.781 24.219,0.912 4.622,0.13 14.778,3.255 15.755,2.734 0.977,-0.521 0.78,-3.776 0.78,-3.776 z"
         stroke-width="0.5"
         id="path390" />
      <path
         d="m 342.12,240.1 c 0,-0.781 -5.794,-1.758 -8.008,-1.302 -2.214,0.456 -6.286,2.792 -9.245,5.403 -3.32,2.93 -7.031,8.529 -7.031,8.529 0,0 9.701,-5.338 19.401,-7.748 1.758,-0.976 4.883,-4.101 4.883,-4.882 z"
         stroke-width="0.5"
         id="path392" />
      <path
         d="m 328.91,237.83 c 0,0 -3.581,2.93 -5.599,3.45 -2.018,0.521 -6.38,-0.325 -10.612,1.172 -4.232,1.498 -9.917,8.248 -11.306,10.331 -0.521,-5.469 -3.516,-12.175 -5.729,-15.104 2.344,-0.065 5.447,1.062 5.447,1.062 0,0 2.018,1.953 3.906,1.823 1.888,-0.13 3.19,-1.823 5.534,-2.148 2.344,-0.326 18.359,-0.586 18.359,-0.586 z"
         stroke-width="0.5"
         id="path394" />
      <polygon
         points="297.53,249.02 298.57,254.17 295.31,257.88 291.99,257.75 291.93,253.26 "
         id="polygon396" />
      <polygon
         points="297.72,245.7 290.23,251.56 287.17,251.3 287.11,248.24 295.31,244.99 "
         id="polygon398" />
      <path
         d="m 294.73,242.06 -7.682,2.865 -0.065,-2.799 c 0,0 3.06,-3.646 4.753,-3.646 1.691,0 2.994,3.58 2.994,3.58 z"
         id="path400" />
      <polygon
         points="293.1,260.42 288.48,259.05 284.24,262.3 284.18,265.89 287.89,265.76 "
         id="polygon402" />
      <polygon
         points="281.12,260.16 283.46,260.22 288.74,256.06 288.74,253.84 284.77,253.71 281.12,256.64 "
         id="polygon404" />
      <polygon
         points="277.34,254.75 277.28,252.02 281.84,248.7 284.05,248.63 283.92,251.37 279.36,255.08 "
         id="polygon406" />
      <polygon
         points="284.83,243.42 284.83,245.38 277.28,249.02 274.8,248.63 280.99,243.62 "
         id="polygon408" />
      <polygon
         points="274.22,241.67 277.21,238.15 283.27,237.24 287.11,237.83 284.7,240.69 277.41,242.32 "
         id="polygon410" />
      <path
         d="m 274.54,244.66 c -2.344,-0.781 -3.776,-2.539 -3.776,-2.539 0,0 -4.297,1.823 -5.469,3.646 -0.225,0.351 -1.042,2.995 -0.195,3.516 0.847,0.521 3.581,0.391 3.581,0.391 0,0 3.776,-2.215 5.859,-5.014 z"
         id="path412" />
      <polygon
         points="274.74,251.04 270.9,250.91 268.23,252.8 268.68,254.17 274.94,254.62 "
         id="polygon414" />
      <polygon
         points="272.33,262.11 274.87,261.85 278.65,259.57 278.26,257.29 274.94,257.03 272.46,259.31 "
         id="polygon416" />
      <polygon
         points="272.79,267.38 273.31,264.39 278.38,262.11 281.25,262.63 281.18,264.91 276.04,267.38 "
         id="polygon418" />
      <polygon
         points="262.37,268.29 262.3,265.5 266.41,262.3 269.47,262.63 269.27,265.76 264.84,268.23 "
         id="polygon420" />
      <polygon
         points="264.19,260.16 264.13,257.88 267.77,255.86 270.9,256.32 270.31,258.33 267.06,260.03 "
         id="polygon422" />
      <polygon
         points="261.54,250.56 263.41,250.61 263.19,252.52 265.45,252.21 265.3,253.91 261.72,257.03 257.81,256.97 257.88,254.17 "
         id="polygon424" />
      <polygon
         points="250.72,265.56 251.37,263.41 256.71,259.44 261.2,259.77 261.2,262.96 255.99,266.8 "
         id="polygon426" />
    </g>
  </g>
  <g
     transform="matrix(0.41293706,0,0,0.41035621,-1127.1317,66.813796)"
     id="g430-09-0"
     style="clip-rule:evenodd;fill-rule:evenodd;image-rendering:optimizeQuality;shape-rendering:geometricPrecision;text-rendering:geometricPrecision">
    <path
       d="m 557.44,181.77 c 2.233,5.36 -12.197,10.547 -15.322,14.453 -3.683,4.954 -19.897,19.787 -20.182,24.349 -0.912,14.583 7.181,28.404 13.281,53.125 5.489,22.245 7.596,39.322 10.025,44.4 1.743,3.642 8.625,13.69 7.812,20.183 -1.041,8.333 -8.289,14.888 -13.541,15.495 -5.253,0.607 -16.319,-3.949 -20.27,-4.645 -3.949,-0.694 -41.71,-5.121 -61.806,-13.541 -18.382,-7.702 -48.915,-33.508 -48.915,-33.508 l 18.229,-31.25 c 0,0 32.845,8.679 51.953,18.1 11.399,5.62 38.542,29.947 38.542,29.947 0,0 -14.062,-15.494 -16.537,-29.036 -1.861,-10.19 3.082,-46.051 -2.604,-59.766 -2.225,-5.366 -11.806,-15.104 -9.375,-21.875 2.43,-6.771 13.021,-3.906 20.052,-8.203 3.812,-2.33 11.83,-13.955 21.919,-17.535 8.072,-2.865 10.286,0.868 13.541,0.347 5.211,-3.818 11.461,-5.207 13.198,-1.04 z"
       fill="#ffc8a0"
       stroke="#000000"
       stroke-linejoin="round"
       stroke-width="3"
       id="path178-4-7-4"
       style="fill:#ffffff" />
    <path
       d="m 391.2,435.26 c -7.692,-1.061 -1.566,-14.736 -3.387,-19.396 -1.875,-3.887 -7.778,-20.9 -12.177,-25.523 -10.074,-10.584 -29.091,-8.504 -53.55,-15.582 -22.009,-6.368 -37.852,-13.083 -43.465,-13.517 -4.025,-0.312 -16.83,-0.8 -22.046,-4.749 -6.696,-5.069 -8.749,-14.622 -6.648,-19.475 2.101,-4.852 11.58,-12.159 14.156,-15.231 2.577,-3.073 24.304,-28.176 46.357,-42.721 16.637,-10.974 66.16,-24.4 66.16,-24.4 l 10.323,35.192 c 0,0 -19.221,16.697 -38.007,26.745 -20.177,10.792 -58.258,20.905 -58.258,20.905 0,0 21.733,-5.333 34.697,-0.705 9.756,3.483 38.34,25.694 53.061,27.628 5.76,0.756 18.982,-2.671 23.632,2.818 4.648,5.489 -3.127,13.23 -2.922,21.468 0.112,4.466 7.055,13.171 5.111,23.699 -1.556,8.424 -6.832,10.79 -8.008,13.87 -0.76,3.921 -2.4,9.337 -5.029,8.974 z"
       fill="#ffc8a0"
       stroke="#000000"
       stroke-linejoin="round"
       stroke-width="3"
       id="path180-0-1-5"
       style="fill:#ffffff" />
    <path
       d="m 246.7,173.78 c 4.201,-4.368 9.027,2.431 18.402,7.465 7.532,4.045 33.333,5.729 38.542,2.604 12.529,-7.517 20.71,-19.67 39.068,-37.314 16.521,-15.876 29.214,-27.282 32.398,-31.925 2.282,-3.331 7.162,-12.892 13.19,-15.435 7.738,-3.265 17.039,-0.266 20.19,3.98 3.151,4.244 7.556,15.42 8.93,19.188 1.373,3.768 10.351,24.396 13.138,50.675 3.284,30.969 -6.569,69.914 -6.569,69.914 l -41.761,-2.815 c 0,0 -5.63,-37.538 -3.285,-51.614 1.499,-8.991 12.124,-49.9 12.124,-49.9 0,0 -9.754,23.952 -20.245,32.865 -7.894,6.708 -41.42,18.274 -50.456,30.056 -3.535,4.609 -6.306,16.96 -14.9,18.002 -9.597,1.163 -16.667,-4.688 -22.917,-13.802 -6.511,-1.562 -14.679,-4.457 -21.354,-8.073 -6.25,-3.385 -7.373,-8.945 -7.292,-12.24 -4.247,-1.913 -10.362,-8.347 -7.203,-11.631 z"
       fill="#ffc8a0"
       stroke="#000000"
       stroke-linejoin="round"
       stroke-width="3"
       id="path182-8-8-8"
       style="fill:#ffffff" />
    <path
       d="m 423,258.68 c -0.347,14.757 9.723,26.215 9.723,26.215 0,0 5.095,-5.815 8.594,-5.815 4.08,0 30.209,13.542 34.896,12.674 1.813,-0.336 -2.594,-19.643 -6.338,-29.688 -3.559,-9.549 -10.156,-18.664 -17.447,-21.962 -4.333,-1.959 -16.667,-3.125 -21.875,0.348 -5.209,3.471 -7.435,13.194 -7.553,18.228 z"
       fill="#ebb437"
       stroke="#000000"
       stroke-linecap="round"
       stroke-linejoin="round"
       stroke-width="2"
       id="path184-1-5-1"
       style="fill:#ffffff" />
    <path
       d="m 376.25,258.16 c 0.054,12.587 -9.321,26.909 -9.321,26.909 0,0 -5.496,-6.509 -8.995,-6.509 -4.079,0 -31.543,14.756 -36.23,13.888 -1.814,-0.336 3.929,-20.858 7.672,-30.902 3.559,-9.548 10.156,-18.664 17.448,-21.962 4.333,-1.96 16.667,-3.125 21.875,0.347 5.207,3.473 7.53,13.194 7.551,18.229 z"
       fill="#ebb432"
       stroke="#000000"
       stroke-linecap="round"
       stroke-linejoin="round"
       stroke-width="2"
       id="path186-7-0-7"
       style="fill:#ffffff" />
    <path
       d="m 356.772,232.116 c 2.431,-9.635 8.854,-15.321 20.92,-15.538 3.646,-4.427 12.5,-13.455 23.525,-4.861 9.461,-8.333 14.539,1.432 18.445,1.432 11.73622,6.53337 26.10717,5.84127 27.818,44.141 -3.516,3.776 -12.45,9.375 -17.789,7.552 0.253,4.946 2.518,10.851 8.333,15.364 -1.562,20.443 -17.101,28.386 -24.609,33.594 1.736,3.298 1.579,6.939 1.433,7.553 -0.8,2.599 -0.944,1.746 -0.745,4.445 1.88718,3.09146 1.55697,14.90151 1.55697,14.90151 -16.72232,12.66686 -3.71795,11.72785 -23.81425,3.30391 -1.601,-6.2 -4.58372,-8.27842 -4.08372,-14.57842 0.5,-2.3 -2.518,-3.819 -3.038,-7.031 -0.701,-3.199 2.229,-7.304 1.128,-10.503 -12.413,-6.163 -22.179,-14.106 -23.481,-31.554 0,0 0.998,-7.422 5.599,-13.933 -5.729,-1.823 -12.109,-6.467 -13.672,-14.974 -7.682,11.588 -19.922,12.891 -25.781,12.37 0,0 7.97123,-15.66415 28.255,-31.684 z"
       stroke="#000000"
       stroke-linecap="round"
       stroke-linejoin="round"
       id="path188-4-1"
       sodipodi:nodetypes="cccccccccccccccccccc" />
    <g
       fill="none"
       stroke="#000000"
       stroke-linecap="round"
       id="g210-2-3">
      <path
         d="m 362.33,265.62 c -3.299,4.948 -4.081,12.848 -4.081,12.848"
         id="path190-6-0" />
      <path
         d="m 358.85,261.11 c -4.34,6.25 -5.902,18.229 -5.902,18.229"
         id="path192-0-8" />
      <path
         d="m 354.6,257.2 c -5.035,8.073 -7.292,24.653 -7.292,24.653"
         id="path194-9-5" />
      <path
         d="m 348.44,259.03 c -8.594,14.062 -8.247,26.303 -8.247,26.303"
         id="path196-9-6" />
      <path
         d="m 339.58,264.24 c -8.594,13.715 -7.552,24.652 -7.552,24.652"
         id="path198-8-4" />
      <path
         d="m 435.33,267.54 c 3.559,4.428 4.167,11.632 4.167,11.632"
         id="path200-9-3" />
      <path
         d="m 439.32,265.8 c 3.385,3.906 5.469,13.716 5.469,13.716"
         id="path202-2-4" />
      <path
         d="m 443.4,262.24 c 5.208,6.338 7.031,19.358 7.031,19.358"
         id="path204-2-7" />
      <path
         d="m 447.48,257.29 c 9.636,13.541 9.983,27.257 9.983,27.257"
         id="path206-8-5" />
      <path
         d="m 457.03,260.5 c 8.594,13.715 8.507,28.038 8.507,28.038"
         id="path208-7-9" />
    </g>
    <path
       d="m 399.57,242.01 c 10.417,0 28.109,4.906 29.427,24.305 1.91,28.125 -21.181,44.792 -29.341,44.792 -9.288,0 -31.076,-16.319 -29.166,-45.573 1.256,-19.229 18.83,-23.524 29.08,-23.524 z"
       fill="#ffc8a0"
       stroke="#000000"
       stroke-linecap="round"
       stroke-linejoin="round"
       stroke-width="2"
       id="path212-1-3"
       style="fill:#ffffff" />
    <path
       d="m 419.36,271.44 c 0,0 -3.126,-1.866 -6.077,-1.822 -2.951,0.043 -6.076,2.083 -6.076,2.083 0,0 3.689,2.17 6.38,2.171 2.691,10e-4 5.773,-2.432 5.773,-2.432 z"
       stroke="#000000"
       stroke-linecap="round"
       stroke-linejoin="round"
       id="path214-2-6" />
    <path
       d="m 392.45,271.53 c 0,0 -3.559,-2.301 -5.513,-2.604 -1.953,-0.303 -6.64,1.562 -6.64,1.562 0,0 3.603,2.777 6.033,3.039 2.431,0.261 6.12,-1.997 6.12,-1.997 z"
       stroke="#000000"
       stroke-linecap="round"
       stroke-linejoin="round"
       id="path216-6-5" />
    <path
       d="m 421.09,265.19 c 0,0 -3.299,-2.908 -9.028,-2.734 -5.729,0.174 -8.55,3.646 -9.244,5.078 -0.442,0.912 -0.26,11.675 0.087,13.021 0.347,1.346 3.732,4.86 3.298,6.597 -0.434,1.737 -2.127,0.955 -3.342,1.648 -1.215,0.696 -2.213,1.562 -3.038,1.562 -1.562,0 -1.779,-0.913 -3.472,-1.432 -1.53,-0.471 -3.473,0 -3.993,-1.433 -0.518,-1.424 1.605,-3.212 1.605,-3.212"
       fill="none"
       stroke="#000000"
       stroke-linecap="round"
       stroke-linejoin="round"
       id="path218-9-1" />
    <path
       d="m 393.75,265.36 c 0,0 -2.387,-2.777 -7.986,-2.907 -5.599,-0.131 -9.071,3.429 -9.461,4.688 -0.39,1.259 0.478,2.517 0.478,2.517"
       fill="none"
       stroke="#000000"
       stroke-linecap="round"
       stroke-linejoin="round"
       id="path220-5-8" />
    <path
       d="m 420.49,275.52 c 0,0 -3.429,3.386 -7.205,3.386 -3.776,0 -8.94,-3.906 -8.94,-3.906"
       fill="none"
       stroke="#000000"
       stroke-linecap="round"
       stroke-linejoin="round"
       id="path222-8-9" />
    <path
       d="m 392.93,275.91 c 0,0 -4.341,2.865 -7.118,2.865 -2.778,0 -4.515,-1.085 -4.515,-1.085"
       fill="none"
       stroke="#000000"
       stroke-linecap="round"
       stroke-linejoin="round"
       id="path224-5-0" />
    <path
       d="m 399.48,298.48 c -0.89,0 -2.361,-0.646 -2.361,-0.646 -1.003,-0.113 -3.933,-0.049 -5.517,-0.353 -1.685,-0.323 -3.736,-1.946 -3.928,-2.213 -0.167,-0.233 0.373,-0.689 0.606,-0.857 0.235,-0.167 0.683,-0.166 0.728,0.119 0.163,1.042 1.908,2.024 2.789,2.171 2.344,0.391 5.625,-0.99 5.755,-0.891 l 1.919,0.443 1.894,-0.5 c 0.122,-0.1 3.802,1.077 6.492,0.859 0.828,-0.066 2.474,-0.933 2.851,-2.107 0.087,-0.274 0.51,-0.258 0.733,-0.076 0.223,0.181 0.59,0.702 0.408,0.926 -0.207,0.254 -2.148,1.67 -3.797,2.061 -1.486,0.353 -4.927,0.326 -6.25,0.5 10e-4,0 -1.28,0.564 -2.322,0.564 z"
       id="path226-8-9" />
    <path
       d="m 404.69,301.3 c 0,0 -3.45,1.498 -5.078,1.498 -2.019,0 -5.426,-1.498 -5.426,-1.498"
       fill="none"
       stroke="#000000"
       stroke-linecap="round"
       stroke-linejoin="round"
       stroke-width="1.5"
       id="path228-3-7" />
    <g
       fill="#ebb437"
       stroke="#ebb437"
       stroke-linecap="round"
       stroke-linejoin="round"
       stroke-width="0.5"
       id="g320-7-2"
       style="fill:#ffffff">
      <path
         d="m 429.17,231.29 c -0.868,0.043 -2.344,-2.647 -2.344,-4.688 0,-2.04 -0.173,-3.906 -1.649,-5.381 -1.13,-1.129 -3.212,-1.302 -4.861,-1.237 -1.649,0.065 -4.774,0.543 -4.817,-1.172 -0.044,-1.714 3.017,-3.754 6.163,-3.754 3.146,0 5.815,1.801 6.987,3.472 1.172,1.671 1.966,4.625 2.041,6.294 0.085,1.909 -0.1,6.396 -1.52,6.466 z"
         id="path230-5-4"
         style="fill:#ffffff" />
      <path
         d="m 378.12,219.21 c 0.26,0.89 -6.242,4.874 -8.203,6.25 -3.06,2.148 -5.815,4.883 -5.208,8.529 0.476,2.858 2.57,4.266 4.427,4.73 2.604,0.651 5.946,-0.26 5.946,-0.26 0,0 0.282,1.671 1.389,2.388 1.107,0.716 3.472,1.605 3.472,1.605 0,0 -4.362,1.888 -9.375,1.628 -5.013,-0.261 -9.57,-3.386 -9.961,-7.748 -0.391,-4.362 0.261,-7.617 2.604,-10.612 1.598,-2.042 4.752,-4.688 7.552,-5.794 2.164,-0.856 7.097,-1.606 7.357,-0.716 z"
         id="path232-4-4"
         style="fill:#ffffff" />
      <ellipse
         transform="matrix(-0.838,0.5457,-0.5457,-0.838,821.68,224.34)"
         cx="377.54001"
         cy="234.14999"
         rx="2.4089999"
         ry="1.1390001"
         id="ellipse234-4-0"
         style="fill:#ffffff" />
      <path
         d="m 391.6,226.63 c 0,0 -6.185,-0.065 -8.333,1.562 -1.807,1.369 -2.213,2.604 -1.823,3.516 0.391,0.912 1.758,1.758 4.492,0.651 3.11,-1.258 5.664,-5.729 5.664,-5.729 z"
         id="path236-5-3"
         style="fill:#ffffff" />
      <ellipse
         transform="matrix(-0.9441,0.3297,-0.3297,-0.9441,833.64,303.55)"
         cx="391.07999"
         cy="222.46001"
         rx="5.013"
         ry="2.4089999"
         id="ellipse238-0-1"
         style="fill:#ffffff" />
      <path
         d="m 398.5,217.51 c 1.822,-2.019 -0.679,-6.445 -6.532,-6.445 -5.469,0 -10.606,8.437 -11.927,9.886 -2.182,2.395 -6.627,6.588 -11.445,9.5 -2.909,2.033 0.086,5.483 2.755,5.028 1.099,-0.188 8.326,-6.663 10.091,-8.594 2.083,-2.279 4.439,-5.638 5.403,-7.031 1.172,-1.693 3.3,-3.711 4.818,-3.711 3.321,0 5.357,3.005 6.837,1.367 z"
         id="path240-3-8"
         style="fill:#ffffff" />
      <path
         d="m 414.71,215.88 c 0.718,-1.301 -0.087,-4.167 -5.426,-4.167 -4.688,0 -9.802,8.79 -10.785,10.417 -1.628,2.691 -3.624,6.467 -8.442,9.766 4.948,0.261 8.052,0 8.052,0 0,0 2.994,-2.669 4.166,-4.948 1.172,-2.279 2.148,-5.729 3.061,-7.096 0.911,-1.367 2.233,-2.904 3.58,-3.255 1.497,-0.391 4.752,1.171 5.794,-0.717 z"
         id="path242-9-4"
         style="fill:#ffffff" />
      <path
         d="m 409.55,218.79 c 0.607,-0.781 3.516,0.521 4.036,1.042 0.521,0.521 2.561,5.382 4.904,6.988 2.344,1.606 4.819,2.17 5.687,2.561 0.868,0.391 2.561,3.082 2.387,4.601 -0.174,1.519 -5.469,4.948 -5.469,4.948 0,0 0.869,-4.688 -1.996,-6.554 -2.277,-1.483 -6.511,-0.998 -8.03,-1.259 -1.519,-0.26 -6.554,-2.04 -6.51,-3.472 0.043,-1.433 2.127,-4.774 2.127,-4.774 0,0 3.992,3.906 4.947,2.908 0.956,-0.999 -2.691,-6.207 -2.083,-6.989 z"
         id="path244-8-8"
         style="fill:#ffffff" />
      <path
         d="m 418.74,236.08 c -0.036,-0.943 -6.027,-2.916 -8.943,-2.965 -2.915,-0.049 -7.178,0.83 -7.581,2.673 -0.341,1.555 3.5,4.617 4.715,4.617 1.214,0 1.991,-2.479 3.838,-3.014 1.846,-0.535 8.068,1.313 7.971,-1.311 z"
         stroke-width="1"
         id="path246-9-8"
         style="fill:#ffffff" />
      <path
         d="m 419.27,251.04 c -3.622,0.499 -10.63,-0.801 -13.541,-2.995 -1.74,-1.311 -9.433,-8.562 -13.281,-9.245 -4.492,-0.797 -10.417,5.469 -14.695,0.801 -1.845,-2.013 3.755,-4.19 6.103,-4.824 2.347,-0.633 9.114,-1.705 11.978,-0.925 2.864,0.78 9.007,6.188 11.589,8.38 2.579,2.193 10.024,7.332 11.847,8.808 z"
         stroke="#000000"
         stroke-width="2"
         id="path248-9-7"
         style="fill:#ffffff" />
      <path
         d="m 433.72,221.68 c 2.084,-0.456 3.061,5.794 3.19,8.789 0.129,2.995 -0.911,9.375 -1.953,9.375 -1.042,0 -1.692,-1.823 -1.692,-1.823 0,0 1.106,-4.102 -0.912,-5.925 0.391,-1.562 0.977,-2.995 0.781,-5.013 -0.196,-2.018 -0.815,-5.097 0.586,-5.403 z"
         id="path250-5-2"
         style="fill:#ffffff" />
      <path
         d="m 431.57,233.13 c 3.386,1.318 -3.727,9.856 -5.269,10.766 -3.023,1.785 -11.971,2.313 -13.979,1.298 -2.341,-1.183 -5.64,-4.134 -5.64,-4.134 0,0 11.246,1.82 15.538,0.086 4.958,-2 7.264,-8.828 9.35,-8.016 z"
         stroke="#000000"
         stroke-width="1"
         id="path252-3-8"
         style="fill:#ffffff" />
      <ellipse
         transform="matrix(0.8633,-0.5046,0.5046,0.8633,-64.27,252.22)"
         cx="433.53"
         cy="244.77"
         rx="1.931"
         ry="3.971"
         id="ellipse254-8-6"
         style="fill:#ffffff" />
      <ellipse
         transform="matrix(0.8505,-0.526,0.526,0.8505,-65.497,262.11)"
         cx="428.32001"
         cy="246.27"
         rx="1.541"
         ry="2.082"
         id="ellipse256-4-5"
         style="fill:#ffffff" />
      <path
         d="m 439.41,230.25 c -0.044,5.339 -1.997,9.766 -1.866,11.198 0.13,1.432 1.562,2.56 3.038,3.428 1.477,0.869 3.386,1.562 3.906,1.085 0.521,-0.477 0.608,-2.04 0.131,-2.908 -0.479,-0.868 -2.258,-1.085 -2.692,-2.474 -0.434,-1.388 0.044,-2.995 -0.26,-4.948 -0.305,-1.952 -1.605,-4.556 -2.257,-5.381 z"
         id="path258-7-7"
         style="fill:#ffffff" />
      <path
         d="m 413.63,246.18 c 2.275,0.104 8.371,-0.895 9.636,-0.173 1.266,0.721 5.497,6.931 5.902,8.68 0.403,1.75 0.057,4.427 -1.057,5.713 -4.412,-4.151 -10.488,-11.529 -14.481,-14.22 z"
         stroke="#000000"
         stroke-width="2"
         id="path260-7-2"
         style="fill:#ffffff" />
      <path
         d="m 430.6,249.7 c -1.995,0.521 1.042,5.99 0.912,7.292 -0.131,1.302 -2.04,2.907 -1.996,3.559 0.044,0.652 3.992,3.342 6.423,3.342 1.998,0 5.989,-3.081 6.641,-4.557 0.652,-1.476 1.302,-4.991 0.825,-7.552 -0.478,-2.561 -4.602,-5.251 -4.602,-5.251 0,0 -1.084,2.083 -1.128,3.689 -0.044,1.605 1.259,3.559 1.433,4.861 0.174,1.302 -0.738,3.56 -1.216,4.123 -0.478,0.564 -3.081,1.129 -3.862,0.521 -0.781,-0.608 1.648,-3.342 1.648,-5.382 0,-1.823 -3.082,-5.166 -5.078,-4.645 z"
         id="path262-1-7"
         style="fill:#ffffff" />
      <path
         d="m 393.75,239.58 c 2.212,0 6.25,4.167 6.25,4.167 0,0 -6.666,3.736 -9.859,4.535 -3.195,0.799 -8.497,1.117 -11.55,2.057 -3.053,0.94 -5.785,8.372 -8.557,8.231 -2.772,-0.141 -1.926,-4.838 -1.926,-4.838 0,0 0.799,-5.215 4.321,-7.282 3.523,-2.067 9.208,-2.114 12.824,-2.865 3.618,-0.753 5.256,-4.005 8.497,-4.005 z"
         stroke="#000000"
         stroke-width="2"
         id="path264-2-9"
         style="fill:#ffffff" />
      <path
         d="m 367.27,246.96 c 0,0 -0.737,3.429 -1.605,3.95 -0.869,0.521 -5.339,-4.514 -5.208,-6.858 0.13,-2.35 6.813,2.908 6.813,2.908 z"
         id="path266-8-0"
         style="fill:#ffffff" />
      <ellipse
         transform="matrix(0.7859,-0.6183,0.6183,0.7859,-79.027,279.48)"
         cx="364.13"
         cy="253.88"
         rx="1.012"
         ry="2.684"
         id="ellipse268-7-0"
         style="fill:#ffffff" />
      <path
         d="m 359.3,246.78 c -1.897,-1.314 -2.918,1.747 -2.918,4.378 0,3.162 1.605,6.664 4.329,9.631 2.724,2.967 9.343,4.663 9.343,4.663 l 0.911,-5.556 c 0,0 -6.162,0.168 -9.038,-3.388 -2.676,-3.307 -0.73,-8.415 -2.627,-9.728 z"
         stroke="#000000"
         stroke-width="1"
         id="path270-4-1"
         style="fill:#ffffff" />
      <path
         d="m 359.38,241.19 c -3.646,2.561 -5.078,7.509 -5.078,7.509 0,0 -1.78,-6.857 -1.736,-9.505 0.043,-2.648 1.649,-5.946 3.646,-5.772 1.996,0.173 1.302,5.121 3.168,7.768 z"
         id="path272-2-7"
         style="fill:#ffffff" />
      <path
         d="m 347.57,242.62 c 2.344,0 3.385,7.725 3.298,8.941 -0.087,1.216 -3.125,4.86 -6.597,7.031 -24.81041,10.14472 0.76563,-24.60263 3.299,-15.972 z"
         id="path274-6-1"
         style="fill:#ffffff"
         sodipodi:nodetypes="cscc" />
      <path
         d="m 428.58,279.88 c 0.3,1.035 1.643,1.164 3.301,0.683 1.658,-0.481 2.208,-1.926 1.907,-2.961 -0.3,-1.036 -1.338,-1.271 -2.996,-0.791 -1.658,0.481 -2.514,2.034 -2.212,3.069 z"
         id="path276-5-9"
         style="fill:#ffffff" />
      <path
         d="m 435.03,282.03 c 0,0 -3.972,1.497 -6.901,1.389 0,0.825 -1.823,4.254 -1.823,4.254 0,0 6.315,0.261 7.812,-1.085 1.498,-1.346 0.912,-4.558 0.912,-4.558 z"
         id="path278-3-0"
         style="fill:#ffffff" />
      <path
         d="m 435.16,288.93 c 0,0 -6.38,1.172 -9.636,0.737 -0.195,0.955 -1.302,2.257 -1.302,2.257 0,0 4.731,3.646 7.031,2.734 2.301,-0.911 3.907,-5.728 3.907,-5.728 z"
         id="path280-0-4"
         style="fill:#ffffff" />
      <path
         d="m 430.47,296.74 c 0,0 -5.403,-1.042 -7.747,-2.475 -0.456,1.172 -1.823,2.604 -1.823,2.604 0,0 2.474,3.19 4.883,3.125 2.409,-0.065 4.687,-3.254 4.687,-3.254 z"
         id="path282-2-7"
         style="fill:#ffffff" />
      <path
         d="m 426.3,301.82 c 0,0 -5.664,-1.303 -7.096,-2.409 -0.456,0.911 -2.865,3.19 -2.865,3.19 0,0 2.084,2.539 4.232,2.344 2.148,-0.195 5.729,-3.125 5.729,-3.125 z"
         id="path284-0-6"
         style="fill:#ffffff" />
      <path
         d="m 414.19,304.82 5.859,2.214 c 0,0 -3.189,2.8 -5.989,2.93 -2.8,0.13 -3.841,-1.628 -3.841,-1.628 z"
         id="path286-0-5"
         style="fill:#ffffff" />
      <path
         d="m 370.18,276.3 c 0.13,1.562 -0.719,1.294 -2.377,0.813 -1.658,-0.481 -2.758,-1.711 -2.457,-2.747 0.3,-1.035 1.483,-1.281 3.142,-0.801 1.657,0.482 1.603,1.661 1.692,2.735 z"
         id="path288-3-1"
         style="fill:#ffffff" />
      <path
         d="m 364.19,277.34 c 0,0 3.27,3.346 7.319,4.008 -0.154,0.811 1.405,4.977 1.405,4.977 0,0 -5.745,-1.344 -7.552,-3.06 -1.807,-1.716 -1.172,-5.925 -1.172,-5.925 z"
         id="path290-3-4"
         style="fill:#ffffff" />
      <path
         d="m 365.36,286.72 c 0,0 4.968,1.817 8.919,2.864 0.261,1.303 1.367,3.776 1.367,3.776 0,0 -5.664,0.586 -7.422,-0.521 -2.55,-1.605 -2.864,-6.119 -2.864,-6.119 z"
         id="path292-8-5"
         style="fill:#ffffff" />
      <path
         d="m 369.27,295.57 c 0,0 5.507,0.672 8.594,0.781 0.13,1.106 2.083,3.06 2.083,3.06 0,0 -4.098,2.555 -6.51,1.106 -2.413,-1.448 -4.167,-4.947 -4.167,-4.947 z"
         id="path294-8-5"
         style="fill:#ffffff" />
      <path
         d="m 375.78,303.26 c 0,0 4.492,-0.977 5.924,-2.083 0.456,0.911 2.344,2.734 2.344,2.734 0,0 -1.953,2.409 -4.102,2.214 -2.149,-0.195 -4.166,-2.865 -4.166,-2.865 z"
         id="path296-3-9"
         style="fill:#ffffff" />
      <path
         d="m 386.2,306.32 -3.634,1.562 c 0,0 1.028,2.055 3.829,2.148 1.953,0.064 2.799,-1.433 2.799,-1.433 z"
         id="path298-2-9"
         style="fill:#ffffff" />
      <path
         d="m 408.2,310.03 c -2.214,1.822 -5.859,2.669 -5.859,2.669 0,0 7.489,12.107 9.636,9.961 3.254,-3.255 -1.303,-10.807 -3.777,-12.63 z"
         id="path300-1-9"
         style="fill:#ffffff" />
      <path
         d="m 397.33,313.35 c 0,0 -1.889,1.692 -3.386,2.474 3.125,1.433 7.683,9.505 9.114,5.859 1.433,-3.646 -5.728,-8.333 -5.728,-8.333 z"
         id="path302-0-9"
         style="fill:#ffffff" />
      <path
         d="m 405.34,322.85 c 0,0 -1.209,2.569 -0.977,4.036 0.586,3.711 9.114,8.073 9.18,4.818 0.064,-3.256 -8.203,-8.854 -8.203,-8.854 z"
         id="path304-5-2"
         style="fill:#ffffff" />
      <path
         d="m 391.21,310.16 2.93,1.823 c 0,0 -2.019,3.385 -4.297,2.344 -2.279,-1.042 1.367,-4.167 1.367,-4.167 z"
         id="path306-5-4"
         style="fill:#ffffff" />
      <ellipse
         cx="391.10999"
         cy="321.32001"
         rx="2.8970001"
         ry="3.9389999"
         id="ellipse308-1-0"
         style="fill:#ffffff" />
      <path
         d="m 397.14,322.59 c -0.781,1.237 -1.953,3.061 -1.953,3.061 0,0 1.758,2.864 2.278,5.533 1.433,0.131 3.19,-1.302 3.19,-3.906 0,-1.823 -2.343,-4.557 -3.515,-4.688 z"
         id="path310-4-6"
         style="fill:#ffffff" />
      <path
         d="m 403.19,330.73 -1.237,1.497 c 0,0 2.995,6.315 4.883,8.528 1.302,-6.64 -3.646,-10.025 -3.646,-10.025 z"
         id="path312-4-2"
         style="fill:#ffffff" />
      <path
         d="m 409.77,335.61 c 0.59276,0.68171 -0.325,4.166 0.456,5.924 1.93743,-0.0968 3.58,-6.31303 3.58,-6.31303 -1.20845,-0.60894 -2.70162,0.17331 -4.036,0.38903 z"
         id="path314-7-2"
         style="fill:#ffffff"
         sodipodi:nodetypes="cccc" />
      <path
         d="m 392.51,327.41 c -1.562,0 -2.669,1.692 -2.669,3.775 0,1.562 1.433,4.818 3.255,4.948 1.823,0.13 2.019,-4.167 2.019,-4.167 0,0 -1.043,-4.556 -2.605,-4.556 z"
         id="path316-8-1"
         style="fill:#ffffff" />
      <path
         d="m 399.28,333.33 c 0,0 -1.722,2.245 -1.367,4.167 0.179,10.765 8.00219,11.98517 8.528,8.985 -2.083,-2.864 -7.161,-13.152 -7.161,-13.152 z"
         id="path318-8-0"
         style="fill:#ffffff"
         sodipodi:nodetypes="cccc" />
    </g>
    <g
       fill="#ebb437"
       stroke="#ebb437"
       stroke-linecap="round"
       stroke-linejoin="round"
       id="g428-5-4">
      <path
         d="m 395.31,338.28 c 0.391,2.995 2.734,6.511 2.734,6.511 0,0 -4.569,0.061 -5.859,-2.019 -1.172,-1.888 -0.521,-4.102 -0.521,-4.102 0,0 1.954,-0.194 3.646,-0.39 z"
         stroke-width="0.5"
         id="path322-8-7"
         style="fill:#ffffff" />
    </g>
  </g>
  <rect
     x="1"
     y="1"
     width="600"
     height="44.439999"
     fill="#DC143C"
     id="rect25826-93"
     style="fill:#003878;fill-opacity:1" />
  <rect
     x="1"
     y="45.440002"
     width="600"
     height="44.439999"
     fill="#FFD700"
     id="rect25828-8"
     style="fill:#ffffff;fill-opacity:1" />
  <rect
     x="1"
     y="89.880005"
     width="600"
     height="44.439999"
     fill="#DC143C"
     id="rect25830-3"
     style="fill:#003878;fill-opacity:1" />
  <rect
     x="1"
     y="134.32001"
     width="600"
     height="44.439999"
     fill="#FFD700"
     id="rect25832-8"
     style="fill:#ffffff;fill-opacity:1" />
  <rect
     x="1"
     y="178.76001"
     width="600"
     height="44.439999"
     fill="#DC143C"
     id="rect25834-7"
     style="fill:#a6192e;fill-opacity:1" />
  <rect
     x="1"
     y="223.20001"
     width="600"
     height="44.439999"
     fill="#FFD700"
     id="rect25836-0"
     style="fill:#ffffff;fill-opacity:1" />
  <rect
     x="1"
     y="267.64005"
     width="600"
     height="44.439999"
     fill="#DC143C"
     id="rect25838-86"
     style="fill:#043a7a;fill-opacity:1" />
  <rect
     x="1"
     y="312.08002"
     width="600"
     height="44.439999"
     fill="#FFD700"
     id="rect25840-3"
     style="fill:#ffffff;fill-opacity:1" />
  <rect
     x="1"
     y="356.52002"
     width="600"
     height="44.48"
     fill="#DC143C"
     id="rect25842-5"
     style="fill:#043a7a;fill-opacity:1" />
  <rect
     x="1"
     y="1"
     width="600"
     height="400"
     fill="none"
     stroke="#333333"
     stroke-width="2"
     id="rect25846-1" />
  <g
     transform="matrix(0.33168126,0,0,0.32960824,-1330.6236,518.89437)"
     id="g430-09-0-4-4-9"
     style="clip-rule:evenodd;fill-rule:evenodd;image-rendering:optimizeQuality;shape-rendering:geometricPrecision;text-rendering:geometricPrecision">
    <path
       d="m 557.44,181.77 c 2.233,5.36 -12.197,10.547 -15.322,14.453 -3.683,4.954 -19.897,19.787 -20.182,24.349 -0.912,14.583 7.181,28.404 13.281,53.125 5.489,22.245 7.596,39.322 10.025,44.4 1.743,3.642 8.625,13.69 7.812,20.183 -1.041,8.333 -8.289,14.888 -13.541,15.495 -5.253,0.607 -16.319,-3.949 -20.27,-4.645 -3.949,-0.694 -41.71,-5.121 -61.806,-13.541 -18.382,-7.702 -48.915,-33.508 -48.915,-33.508 l 18.229,-31.25 c 0,0 32.845,8.679 51.953,18.1 11.399,5.62 38.542,29.947 38.542,29.947 0,0 -14.062,-15.494 -16.537,-29.036 -1.861,-10.19 3.082,-46.051 -2.604,-59.766 -2.225,-5.366 -11.806,-15.104 -9.375,-21.875 2.43,-6.771 13.021,-3.906 20.052,-8.203 3.812,-2.33 11.83,-13.955 21.919,-17.535 8.072,-2.865 10.286,0.868 13.541,0.347 5.211,-3.818 11.461,-5.207 13.198,-1.04 z"
       fill="#ffc8a0"
       stroke="#000000"
       stroke-linejoin="round"
       stroke-width="3"
       id="path178-4-7-4-7-0-0"
       style="fill:#ffffff" />
    <path
       d="m 391.2,435.26 c -7.692,-1.061 -1.566,-14.736 -3.387,-19.396 -1.875,-3.887 -7.778,-20.9 -12.177,-25.523 -10.074,-10.584 -29.091,-8.504 -53.55,-15.582 -22.009,-6.368 -37.852,-13.083 -43.465,-13.517 -4.025,-0.312 -16.83,-0.8 -22.046,-4.749 -6.696,-5.069 -8.749,-14.622 -6.648,-19.475 2.101,-4.852 11.58,-12.159 14.156,-15.231 2.577,-3.073 24.304,-28.176 46.357,-42.721 16.637,-10.974 66.16,-24.4 66.16,-24.4 l 10.323,35.192 c 0,0 -19.221,16.697 -38.007,26.745 -20.177,10.792 -58.258,20.905 -58.258,20.905 0,0 21.733,-5.333 34.697,-0.705 9.756,3.483 38.34,25.694 53.061,27.628 5.76,0.756 18.982,-2.671 23.632,2.818 4.648,5.489 -3.127,13.23 -2.922,21.468 0.112,4.466 7.055,13.171 5.111,23.699 -1.556,8.424 -6.832,10.79 -8.008,13.87 -0.76,3.921 -2.4,9.337 -5.029,8.974 z"
       fill="#ffc8a0"
       stroke="#000000"
       stroke-linejoin="round"
       stroke-width="3"
       id="path180-0-1-5-7-8-6"
       style="fill:#ffffff" />
    <path
       d="m 246.7,173.78 c 4.201,-4.368 9.027,2.431 18.402,7.465 7.532,4.045 33.333,5.729 38.542,2.604 12.529,-7.517 20.71,-19.67 39.068,-37.314 16.521,-15.876 29.214,-27.282 32.398,-31.925 2.282,-3.331 7.162,-12.892 13.19,-15.435 7.738,-3.265 17.039,-0.266 20.19,3.98 3.151,4.244 7.556,15.42 8.93,19.188 1.373,3.768 10.351,24.396 13.138,50.675 3.284,30.969 -6.569,69.914 -6.569,69.914 l -41.761,-2.815 c 0,0 -5.63,-37.538 -3.285,-51.614 1.499,-8.991 12.124,-49.9 12.124,-49.9 0,0 -9.754,23.952 -20.245,32.865 -7.894,6.708 -41.42,18.274 -50.456,30.056 -3.535,4.609 -6.306,16.96 -14.9,18.002 -9.597,1.163 -16.667,-4.688 -22.917,-13.802 -6.511,-1.562 -14.679,-4.457 -21.354,-8.073 -6.25,-3.385 -7.373,-8.945 -7.292,-12.24 -4.247,-1.913 -10.362,-8.347 -7.203,-11.631 z"
       fill="#ffc8a0"
       stroke="#000000"
       stroke-linejoin="round"
       stroke-width="3"
       id="path182-8-8-8-2-0-8"
       style="fill:#ffffff" />
    <path
       d="m 423,258.68 c -0.347,14.757 9.723,26.215 9.723,26.215 0,0 5.095,-5.815 8.594,-5.815 4.08,0 30.209,13.542 34.896,12.674 1.813,-0.336 -2.594,-19.643 -6.338,-29.688 -3.559,-9.549 -10.156,-18.664 -17.447,-21.962 -4.333,-1.959 -16.667,-3.125 -21.875,0.348 -5.209,3.471 -7.435,13.194 -7.553,18.228 z"
       fill="#ebb437"
       stroke="#000000"
       stroke-linecap="round"
       stroke-linejoin="round"
       stroke-width="2"
       id="path184-1-5-1-6-3-3"
       style="fill:#ffffff" />
    <path
       d="m 376.25,258.16 c 0.054,12.587 -9.321,26.909 -9.321,26.909 0,0 -5.496,-6.509 -8.995,-6.509 -4.079,0 -31.543,14.756 -36.23,13.888 -1.814,-0.336 3.929,-20.858 7.672,-30.902 3.559,-9.548 10.156,-18.664 17.448,-21.962 4.333,-1.96 16.667,-3.125 21.875,0.347 5.207,3.473 7.53,13.194 7.551,18.229 z"
       fill="#ebb432"
       stroke="#000000"
       stroke-linecap="round"
       stroke-linejoin="round"
       stroke-width="2"
       id="path186-7-0-7-1-3-2"
       style="fill:#ffffff" />
    <path
       d="m 356.772,232.116 c 2.431,-9.635 8.854,-15.321 20.92,-15.538 3.646,-4.427 12.5,-13.455 23.525,-4.861 9.461,-8.333 14.539,1.432 18.445,1.432 11.73622,6.53337 26.10717,5.84127 27.818,44.141 -3.516,3.776 -12.45,9.375 -17.789,7.552 0.253,4.946 2.518,10.851 8.333,15.364 -1.562,20.443 -17.101,28.386 -24.609,33.594 1.736,3.298 1.579,6.939 1.433,7.553 -0.8,2.599 -0.944,1.746 -0.745,4.445 1.88718,3.09146 1.55697,14.90151 1.55697,14.90151 -16.72232,12.66686 -3.71795,11.72785 -23.81425,3.30391 -1.601,-6.2 -4.58372,-8.27842 -4.08372,-14.57842 0.5,-2.3 -2.518,-3.819 -3.038,-7.031 -0.701,-3.199 2.229,-7.304 1.128,-10.503 -12.413,-6.163 -22.179,-14.106 -23.481,-31.554 0,0 0.998,-7.422 5.599,-13.933 -5.729,-1.823 -12.109,-6.467 -13.672,-14.974 -7.682,11.588 -19.922,12.891 -25.781,12.37 0,0 7.97123,-15.66415 28.255,-31.684 z"
       stroke="#000000"
       stroke-linecap="round"
       stroke-linejoin="round"
       id="path188-4-1-3-1-7"
       sodipodi:nodetypes="cccccccccccccccccccc" />
    <g
       fill="none"
       stroke="#000000"
       stroke-linecap="round"
       id="g210-2-3-0-3-0">
      <path
         d="m 362.33,265.62 c -3.299,4.948 -4.081,12.848 -4.081,12.848"
         id="path190-6-0-7-6-2" />
      <path
         d="m 358.85,261.11 c -4.34,6.25 -5.902,18.229 -5.902,18.229"
         id="path192-0-8-4-4-5" />
      <path
         d="m 354.6,257.2 c -5.035,8.073 -7.292,24.653 -7.292,24.653"
         id="path194-9-5-1-2-1" />
      <path
         d="m 348.44,259.03 c -8.594,14.062 -8.247,26.303 -8.247,26.303"
         id="path196-9-6-5-9-9" />
      <path
         d="m 339.58,264.24 c -8.594,13.715 -7.552,24.652 -7.552,24.652"
         id="path198-8-4-9-2-4" />
      <path
         d="m 435.33,267.54 c 3.559,4.428 4.167,11.632 4.167,11.632"
         id="path200-9-3-2-2-8" />
      <path
         d="m 439.32,265.8 c 3.385,3.906 5.469,13.716 5.469,13.716"
         id="path202-2-4-6-1-0" />
      <path
         d="m 443.4,262.24 c 5.208,6.338 7.031,19.358 7.031,19.358"
         id="path204-2-7-8-5-6" />
      <path
         d="m 447.48,257.29 c 9.636,13.541 9.983,27.257 9.983,27.257"
         id="path206-8-5-0-5-9" />
      <path
         d="m 457.03,260.5 c 8.594,13.715 8.507,28.038 8.507,28.038"
         id="path208-7-9-5-1-3" />
    </g>
    <path
       d="m 399.57,242.01 c 10.417,0 28.109,4.906 29.427,24.305 1.91,28.125 -21.181,44.792 -29.341,44.792 -9.288,0 -31.076,-16.319 -29.166,-45.573 1.256,-19.229 18.83,-23.524 29.08,-23.524 z"
       fill="#ffc8a0"
       stroke="#000000"
       stroke-linecap="round"
       stroke-linejoin="round"
       stroke-width="2"
       id="path212-1-3-2-4-8"
       style="fill:#ffffff" />
    <path
       d="m 419.36,271.44 c 0,0 -3.126,-1.866 -6.077,-1.822 -2.951,0.043 -6.076,2.083 -6.076,2.083 0,0 3.689,2.17 6.38,2.171 2.691,10e-4 5.773,-2.432 5.773,-2.432 z"
       stroke="#000000"
       stroke-linecap="round"
       stroke-linejoin="round"
       id="path214-2-6-3-0-5" />
    <path
       d="m 392.45,271.53 c 0,0 -3.559,-2.301 -5.513,-2.604 -1.953,-0.303 -6.64,1.562 -6.64,1.562 0,0 3.603,2.777 6.033,3.039 2.431,0.261 6.12,-1.997 6.12,-1.997 z"
       stroke="#000000"
       stroke-linecap="round"
       stroke-linejoin="round"
       id="path216-6-5-5-6-8" />
    <path
       d="m 421.09,265.19 c 0,0 -3.299,-2.908 -9.028,-2.734 -5.729,0.174 -8.55,3.646 -9.244,5.078 -0.442,0.912 -0.26,11.675 0.087,13.021 0.347,1.346 3.732,4.86 3.298,6.597 -0.434,1.737 -2.127,0.955 -3.342,1.648 -1.215,0.696 -2.213,1.562 -3.038,1.562 -1.562,0 -1.779,-0.913 -3.472,-1.432 -1.53,-0.471 -3.473,0 -3.993,-1.433 -0.518,-1.424 1.605,-3.212 1.605,-3.212"
       fill="none"
       stroke="#000000"
       stroke-linecap="round"
       stroke-linejoin="round"
       id="path218-9-1-7-3-9" />
    <path
       d="m 393.75,265.36 c 0,0 -2.387,-2.777 -7.986,-2.907 -5.599,-0.131 -9.071,3.429 -9.461,4.688 -0.39,1.259 0.478,2.517 0.478,2.517"
       fill="none"
       stroke="#000000"
       stroke-linecap="round"
       stroke-linejoin="round"
       id="path220-5-8-5-8-7" />
    <path
       d="m 420.49,275.52 c 0,0 -3.429,3.386 -7.205,3.386 -3.776,0 -8.94,-3.906 -8.94,-3.906"
       fill="none"
       stroke="#000000"
       stroke-linecap="round"
       stroke-linejoin="round"
       id="path222-8-9-2-6-4" />
    <path
       d="m 392.93,275.91 c 0,0 -4.341,2.865 -7.118,2.865 -2.778,0 -4.515,-1.085 -4.515,-1.085"
       fill="none"
       stroke="#000000"
       stroke-linecap="round"
       stroke-linejoin="round"
       id="path224-5-0-8-3-3" />
    <path
       d="m 399.48,298.48 c -0.89,0 -2.361,-0.646 -2.361,-0.646 -1.003,-0.113 -3.933,-0.049 -5.517,-0.353 -1.685,-0.323 -3.736,-1.946 -3.928,-2.213 -0.167,-0.233 0.373,-0.689 0.606,-0.857 0.235,-0.167 0.683,-0.166 0.728,0.119 0.163,1.042 1.908,2.024 2.789,2.171 2.344,0.391 5.625,-0.99 5.755,-0.891 l 1.919,0.443 1.894,-0.5 c 0.122,-0.1 3.802,1.077 6.492,0.859 0.828,-0.066 2.474,-0.933 2.851,-2.107 0.087,-0.274 0.51,-0.258 0.733,-0.076 0.223,0.181 0.59,0.702 0.408,0.926 -0.207,0.254 -2.148,1.67 -3.797,2.061 -1.486,0.353 -4.927,0.326 -6.25,0.5 10e-4,0 -1.28,0.564 -2.322,0.564 z"
       id="path226-8-9-6-9-9" />
    <path
       d="m 404.69,301.3 c 0,0 -3.45,1.498 -5.078,1.498 -2.019,0 -5.426,-1.498 -5.426,-1.498"
       fill="none"
       stroke="#000000"
       stroke-linecap="round"
       stroke-linejoin="round"
       stroke-width="1.5"
       id="path228-3-7-8-3-0" />
    <g
       fill="#ebb437"
       stroke="#ebb437"
       stroke-linecap="round"
       stroke-linejoin="round"
       stroke-width="0.5"
       id="g320-7-2-7-6-4"
       style="fill:#ffffff">
      <path
         d="m 429.17,231.29 c -0.868,0.043 -2.344,-2.647 -2.344,-4.688 0,-2.04 -0.173,-3.906 -1.649,-5.381 -1.13,-1.129 -3.212,-1.302 -4.861,-1.237 -1.649,0.065 -4.774,0.543 -4.817,-1.172 -0.044,-1.714 3.017,-3.754 6.163,-3.754 3.146,0 5.815,1.801 6.987,3.472 1.172,1.671 1.966,4.625 2.041,6.294 0.085,1.909 -0.1,6.396 -1.52,6.466 z"
         id="path230-5-4-2-8-6"
         style="fill:#ffffff" />
      <path
         d="m 378.12,219.21 c 0.26,0.89 -6.242,4.874 -8.203,6.25 -3.06,2.148 -5.815,4.883 -5.208,8.529 0.476,2.858 2.57,4.266 4.427,4.73 2.604,0.651 5.946,-0.26 5.946,-0.26 0,0 0.282,1.671 1.389,2.388 1.107,0.716 3.472,1.605 3.472,1.605 0,0 -4.362,1.888 -9.375,1.628 -5.013,-0.261 -9.57,-3.386 -9.961,-7.748 -0.391,-4.362 0.261,-7.617 2.604,-10.612 1.598,-2.042 4.752,-4.688 7.552,-5.794 2.164,-0.856 7.097,-1.606 7.357,-0.716 z"
         id="path232-4-4-3-1-1"
         style="fill:#ffffff" />
      <ellipse
         transform="matrix(-0.838,0.5457,-0.5457,-0.838,821.68,224.34)"
         cx="377.54001"
         cy="234.14999"
         rx="2.4089999"
         ry="1.1390001"
         id="ellipse234-4-0-6-9-1"
         style="fill:#ffffff" />
      <path
         d="m 391.6,226.63 c 0,0 -6.185,-0.065 -8.333,1.562 -1.807,1.369 -2.213,2.604 -1.823,3.516 0.391,0.912 1.758,1.758 4.492,0.651 3.11,-1.258 5.664,-5.729 5.664,-5.729 z"
         id="path236-5-3-6-9-9"
         style="fill:#ffffff" />
      <ellipse
         transform="matrix(-0.9441,0.3297,-0.3297,-0.9441,833.64,303.55)"
         cx="391.07999"
         cy="222.46001"
         rx="5.013"
         ry="2.4089999"
         id="ellipse238-0-1-1-1-8"
         style="fill:#ffffff" />
      <path
         d="m 398.5,217.51 c 1.822,-2.019 -0.679,-6.445 -6.532,-6.445 -5.469,0 -10.606,8.437 -11.927,9.886 -2.182,2.395 -6.627,6.588 -11.445,9.5 -2.909,2.033 0.086,5.483 2.755,5.028 1.099,-0.188 8.326,-6.663 10.091,-8.594 2.083,-2.279 4.439,-5.638 5.403,-7.031 1.172,-1.693 3.3,-3.711 4.818,-3.711 3.321,0 5.357,3.005 6.837,1.367 z"
         id="path240-3-8-9-5-9"
         style="fill:#ffffff" />
      <path
         d="m 414.71,215.88 c 0.718,-1.301 -0.087,-4.167 -5.426,-4.167 -4.688,0 -9.802,8.79 -10.785,10.417 -1.628,2.691 -3.624,6.467 -8.442,9.766 4.948,0.261 8.052,0 8.052,0 0,0 2.994,-2.669 4.166,-4.948 1.172,-2.279 2.148,-5.729 3.061,-7.096 0.911,-1.367 2.233,-2.904 3.58,-3.255 1.497,-0.391 4.752,1.171 5.794,-0.717 z"
         id="path242-9-4-4-3-7"
         style="fill:#ffffff" />
      <path
         d="m 409.55,218.79 c 0.607,-0.781 3.516,0.521 4.036,1.042 0.521,0.521 2.561,5.382 4.904,6.988 2.344,1.606 4.819,2.17 5.687,2.561 0.868,0.391 2.561,3.082 2.387,4.601 -0.174,1.519 -5.469,4.948 -5.469,4.948 0,0 0.869,-4.688 -1.996,-6.554 -2.277,-1.483 -6.511,-0.998 -8.03,-1.259 -1.519,-0.26 -6.554,-2.04 -6.51,-3.472 0.043,-1.433 2.127,-4.774 2.127,-4.774 0,0 3.992,3.906 4.947,2.908 0.956,-0.999 -2.691,-6.207 -2.083,-6.989 z"
         id="path244-8-8-2-8-5"
         style="fill:#ffffff" />
      <path
         d="m 418.74,236.08 c -0.036,-0.943 -6.027,-2.916 -8.943,-2.965 -2.915,-0.049 -7.178,0.83 -7.581,2.673 -0.341,1.555 3.5,4.617 4.715,4.617 1.214,0 1.991,-2.479 3.838,-3.014 1.846,-0.535 8.068,1.313 7.971,-1.311 z"
         stroke-width="1"
         id="path246-9-8-0-2-3"
         style="fill:#ffffff" />
      <path
         d="m 419.27,251.04 c -3.622,0.499 -10.63,-0.801 -13.541,-2.995 -1.74,-1.311 -9.433,-8.562 -13.281,-9.245 -4.492,-0.797 -10.417,5.469 -14.695,0.801 -1.845,-2.013 3.755,-4.19 6.103,-4.824 2.347,-0.633 9.114,-1.705 11.978,-0.925 2.864,0.78 9.007,6.188 11.589,8.38 2.579,2.193 10.024,7.332 11.847,8.808 z"
         stroke="#000000"
         stroke-width="2"
         id="path248-9-7-7-8-5"
         style="fill:#ffffff" />
      <path
         d="m 433.72,221.68 c 2.084,-0.456 3.061,5.794 3.19,8.789 0.129,2.995 -0.911,9.375 -1.953,9.375 -1.042,0 -1.692,-1.823 -1.692,-1.823 0,0 1.106,-4.102 -0.912,-5.925 0.391,-1.562 0.977,-2.995 0.781,-5.013 -0.196,-2.018 -0.815,-5.097 0.586,-5.403 z"
         id="path250-5-2-8-1-5"
         style="fill:#ffffff" />
      <path
         d="m 431.57,233.13 c 3.386,1.318 -3.727,9.856 -5.269,10.766 -3.023,1.785 -11.971,2.313 -13.979,1.298 -2.341,-1.183 -5.64,-4.134 -5.64,-4.134 0,0 11.246,1.82 15.538,0.086 4.958,-2 7.264,-8.828 9.35,-8.016 z"
         stroke="#000000"
         stroke-width="1"
         id="path252-3-8-1-9-0"
         style="fill:#ffffff" />
      <ellipse
         transform="matrix(0.8633,-0.5046,0.5046,0.8633,-64.27,252.22)"
         cx="433.53"
         cy="244.77"
         rx="1.931"
         ry="3.971"
         id="ellipse254-8-6-3-1-6"
         style="fill:#ffffff" />
      <ellipse
         transform="matrix(0.8505,-0.526,0.526,0.8505,-65.497,262.11)"
         cx="428.32001"
         cy="246.27"
         rx="1.541"
         ry="2.082"
         id="ellipse256-4-5-4-3-5"
         style="fill:#ffffff" />
      <path
         d="m 439.41,230.25 c -0.044,5.339 -1.997,9.766 -1.866,11.198 0.13,1.432 1.562,2.56 3.038,3.428 1.477,0.869 3.386,1.562 3.906,1.085 0.521,-0.477 0.608,-2.04 0.131,-2.908 -0.479,-0.868 -2.258,-1.085 -2.692,-2.474 -0.434,-1.388 0.044,-2.995 -0.26,-4.948 -0.305,-1.952 -1.605,-4.556 -2.257,-5.381 z"
         id="path258-7-7-2-3-5"
         style="fill:#ffffff" />
      <path
         d="m 413.63,246.18 c 2.275,0.104 8.371,-0.895 9.636,-0.173 1.266,0.721 5.497,6.931 5.902,8.68 0.403,1.75 0.057,4.427 -1.057,5.713 -4.412,-4.151 -10.488,-11.529 -14.481,-14.22 z"
         stroke="#000000"
         stroke-width="2"
         id="path260-7-2-5-0-8"
         style="fill:#ffffff" />
      <path
         d="m 430.6,249.7 c -1.995,0.521 1.042,5.99 0.912,7.292 -0.131,1.302 -2.04,2.907 -1.996,3.559 0.044,0.652 3.992,3.342 6.423,3.342 1.998,0 5.989,-3.081 6.641,-4.557 0.652,-1.476 1.302,-4.991 0.825,-7.552 -0.478,-2.561 -4.602,-5.251 -4.602,-5.251 0,0 -1.084,2.083 -1.128,3.689 -0.044,1.605 1.259,3.559 1.433,4.861 0.174,1.302 -0.738,3.56 -1.216,4.123 -0.478,0.564 -3.081,1.129 -3.862,0.521 -0.781,-0.608 1.648,-3.342 1.648,-5.382 0,-1.823 -3.082,-5.166 -5.078,-4.645 z"
         id="path262-1-7-8-3-2"
         style="fill:#ffffff" />
      <path
         d="m 393.75,239.58 c 2.212,0 6.25,4.167 6.25,4.167 0,0 -6.666,3.736 -9.859,4.535 -3.195,0.799 -8.497,1.117 -11.55,2.057 -3.053,0.94 -5.785,8.372 -8.557,8.231 -2.772,-0.141 -1.926,-4.838 -1.926,-4.838 0,0 0.799,-5.215 4.321,-7.282 3.523,-2.067 9.208,-2.114 12.824,-2.865 3.618,-0.753 5.256,-4.005 8.497,-4.005 z"
         stroke="#000000"
         stroke-width="2"
         id="path264-2-9-2-2-7"
         style="fill:#ffffff" />
      <path
         d="m 367.27,246.96 c 0,0 -0.737,3.429 -1.605,3.95 -0.869,0.521 -5.339,-4.514 -5.208,-6.858 0.13,-2.35 6.813,2.908 6.813,2.908 z"
         id="path266-8-0-7-6-4"
         style="fill:#ffffff" />
      <ellipse
         transform="matrix(0.7859,-0.6183,0.6183,0.7859,-79.027,279.48)"
         cx="364.13"
         cy="253.88"
         rx="1.012"
         ry="2.684"
         id="ellipse268-7-0-7-0-4"
         style="fill:#ffffff" />
      <path
         d="m 359.3,246.78 c -1.897,-1.314 -2.918,1.747 -2.918,4.378 0,3.162 1.605,6.664 4.329,9.631 2.724,2.967 9.343,4.663 9.343,4.663 l 0.911,-5.556 c 0,0 -6.162,0.168 -9.038,-3.388 -2.676,-3.307 -0.73,-8.415 -2.627,-9.728 z"
         stroke="#000000"
         stroke-width="1"
         id="path270-4-1-5-6-6"
         style="fill:#ffffff" />
      <path
         d="m 359.38,241.19 c -3.646,2.561 -5.078,7.509 -5.078,7.509 0,0 -1.78,-6.857 -1.736,-9.505 0.043,-2.648 1.649,-5.946 3.646,-5.772 1.996,0.173 1.302,5.121 3.168,7.768 z"
         id="path272-2-7-7-2-0"
         style="fill:#ffffff" />
      <path
         d="m 347.57,242.62 c 2.344,0 3.385,7.725 3.298,8.941 -0.087,1.216 -3.125,4.86 -6.597,7.031 -24.81041,10.14472 0.76563,-24.60263 3.299,-15.972 z"
         id="path274-6-1-1-6-3"
         style="fill:#ffffff"
         sodipodi:nodetypes="cscc" />
      <path
         d="m 428.58,279.88 c 0.3,1.035 1.643,1.164 3.301,0.683 1.658,-0.481 2.208,-1.926 1.907,-2.961 -0.3,-1.036 -1.338,-1.271 -2.996,-0.791 -1.658,0.481 -2.514,2.034 -2.212,3.069 z"
         id="path276-5-9-2-2-5"
         style="fill:#ffffff" />
      <path
         d="m 435.03,282.03 c 0,0 -3.972,1.497 -6.901,1.389 0,0.825 -1.823,4.254 -1.823,4.254 0,0 6.315,0.261 7.812,-1.085 1.498,-1.346 0.912,-4.558 0.912,-4.558 z"
         id="path278-3-0-7-4-8"
         style="fill:#ffffff" />
      <path
         d="m 435.16,288.93 c 0,0 -6.38,1.172 -9.636,0.737 -0.195,0.955 -1.302,2.257 -1.302,2.257 0,0 4.731,3.646 7.031,2.734 2.301,-0.911 3.907,-5.728 3.907,-5.728 z"
         id="path280-0-4-4-2-3"
         style="fill:#ffffff" />
      <path
         d="m 430.47,296.74 c 0,0 -5.403,-1.042 -7.747,-2.475 -0.456,1.172 -1.823,2.604 -1.823,2.604 0,0 2.474,3.19 4.883,3.125 2.409,-0.065 4.687,-3.254 4.687,-3.254 z"
         id="path282-2-7-8-6-3"
         style="fill:#ffffff" />
      <path
         d="m 426.3,301.82 c 0,0 -5.664,-1.303 -7.096,-2.409 -0.456,0.911 -2.865,3.19 -2.865,3.19 0,0 2.084,2.539 4.232,2.344 2.148,-0.195 5.729,-3.125 5.729,-3.125 z"
         id="path284-0-6-3-0-2"
         style="fill:#ffffff" />
      <path
         d="m 414.19,304.82 5.859,2.214 c 0,0 -3.189,2.8 -5.989,2.93 -2.8,0.13 -3.841,-1.628 -3.841,-1.628 z"
         id="path286-0-5-5-9-1"
         style="fill:#ffffff" />
      <path
         d="m 370.18,276.3 c 0.13,1.562 -0.719,1.294 -2.377,0.813 -1.658,-0.481 -2.758,-1.711 -2.457,-2.747 0.3,-1.035 1.483,-1.281 3.142,-0.801 1.657,0.482 1.603,1.661 1.692,2.735 z"
         id="path288-3-1-1-2-6"
         style="fill:#ffffff" />
      <path
         d="m 364.19,277.34 c 0,0 3.27,3.346 7.319,4.008 -0.154,0.811 1.405,4.977 1.405,4.977 0,0 -5.745,-1.344 -7.552,-3.06 -1.807,-1.716 -1.172,-5.925 -1.172,-5.925 z"
         id="path290-3-4-9-4-2"
         style="fill:#ffffff" />
      <path
         d="m 365.36,286.72 c 0,0 4.968,1.817 8.919,2.864 0.261,1.303 1.367,3.776 1.367,3.776 0,0 -5.664,0.586 -7.422,-0.521 -2.55,-1.605 -2.864,-6.119 -2.864,-6.119 z"
         id="path292-8-5-3-5-3"
         style="fill:#ffffff" />
      <path
         d="m 369.27,295.57 c 0,0 5.507,0.672 8.594,0.781 0.13,1.106 2.083,3.06 2.083,3.06 0,0 -4.098,2.555 -6.51,1.106 -2.413,-1.448 -4.167,-4.947 -4.167,-4.947 z"
         id="path294-8-5-3-2-6"
         style="fill:#ffffff" />
      <path
         d="m 375.78,303.26 c 0,0 4.492,-0.977 5.924,-2.083 0.456,0.911 2.344,2.734 2.344,2.734 0,0 -1.953,2.409 -4.102,2.214 -2.149,-0.195 -4.166,-2.865 -4.166,-2.865 z"
         id="path296-3-9-4-2-7"
         style="fill:#ffffff" />
      <path
         d="m 386.2,306.32 -3.634,1.562 c 0,0 1.028,2.055 3.829,2.148 1.953,0.064 2.799,-1.433 2.799,-1.433 z"
         id="path298-2-9-1-4-5"
         style="fill:#ffffff" />
      <path
         d="m 408.2,310.03 c -2.214,1.822 -5.859,2.669 -5.859,2.669 0,0 7.489,12.107 9.636,9.961 3.254,-3.255 -1.303,-10.807 -3.777,-12.63 z"
         id="path300-1-9-8-9-3"
         style="fill:#ffffff" />
      <path
         d="m 397.33,313.35 c 0,0 -1.889,1.692 -3.386,2.474 3.125,1.433 7.683,9.505 9.114,5.859 1.433,-3.646 -5.728,-8.333 -5.728,-8.333 z"
         id="path302-0-9-9-3-9"
         style="fill:#ffffff" />
      <path
         d="m 405.34,322.85 c 0,0 -1.209,2.569 -0.977,4.036 0.586,3.711 9.114,8.073 9.18,4.818 0.064,-3.256 -8.203,-8.854 -8.203,-8.854 z"
         id="path304-5-2-3-7-3"
         style="fill:#ffffff" />
      <path
         d="m 391.21,310.16 2.93,1.823 c 0,0 -2.019,3.385 -4.297,2.344 -2.279,-1.042 1.367,-4.167 1.367,-4.167 z"
         id="path306-5-4-8-7-1"
         style="fill:#ffffff" />
      <ellipse
         cx="391.10999"
         cy="321.32001"
         rx="2.8970001"
         ry="3.9389999"
         id="ellipse308-1-0-7-5-0"
         style="fill:#ffffff" />
      <path
         d="m 397.14,322.59 c -0.781,1.237 -1.953,3.061 -1.953,3.061 0,0 1.758,2.864 2.278,5.533 1.433,0.131 3.19,-1.302 3.19,-3.906 0,-1.823 -2.343,-4.557 -3.515,-4.688 z"
         id="path310-4-6-2-4-9"
         style="fill:#ffffff" />
      <path
         d="m 403.19,330.73 -1.237,1.497 c 0,0 2.995,6.315 4.883,8.528 1.302,-6.64 -3.646,-10.025 -3.646,-10.025 z"
         id="path312-4-2-3-3-9"
         style="fill:#ffffff" />
      <path
         d="m 409.77,335.61 c 0.59276,0.68171 -0.325,4.166 0.456,5.924 1.93743,-0.0968 3.58,-6.31303 3.58,-6.31303 -1.20845,-0.60894 -2.70162,0.17331 -4.036,0.38903 z"
         id="path314-7-2-8-6-8"
         style="fill:#ffffff"
         sodipodi:nodetypes="cccc" />
      <path
         d="m 392.51,327.41 c -1.562,0 -2.669,1.692 -2.669,3.775 0,1.562 1.433,4.818 3.255,4.948 1.823,0.13 2.019,-4.167 2.019,-4.167 0,0 -1.043,-4.556 -2.605,-4.556 z"
         id="path316-8-1-1-4-7"
         style="fill:#ffffff" />
      <path
         d="m 399.28,333.33 c 0,0 -1.722,2.245 -1.367,4.167 0.179,10.765 8.00219,11.98517 8.528,8.985 -2.083,-2.864 -7.161,-13.152 -7.161,-13.152 z"
         id="path318-8-0-1-4-5"
         style="fill:#ffffff"
         sodipodi:nodetypes="cccc" />
    </g>
    <g
       fill="#ebb437"
       stroke="#ebb437"
       stroke-linecap="round"
       stroke-linejoin="round"
       id="g428-5-4-9-8-6">
      <path
         d="m 395.31,338.28 c 0.391,2.995 2.734,6.511 2.734,6.511 0,0 -4.569,0.061 -5.859,-2.019 -1.172,-1.888 -0.521,-4.102 -0.521,-4.102 0,0 1.954,-0.194 3.646,-0.39 z"
         stroke-width="0.5"
         id="path322-8-7-9-1-3"
         style="fill:#ffffff" />
    </g>
  </g>
  <rect
     x="1.9827456"
     y="2.1018279"
     width="238.85542"
     height="177"
     fill="#002868"
     id="rect25844-8"
     style="fill:#003878;fill-opacity:1;stroke-width:0.995483" />
  <g
     id="g2"
     style="fill:#ffffff"
     transform="matrix(0.1802998,0,0,0.1802998,23.314386,6.1625085)">
    <path
       style="fill:#ffffff"
       d="m 449.48724,873.75 c 4.97458,-5.8033 10.23,-16.81793 12.04758,-25.25 0.84437,-3.91721 1.91401,-16.90896 2.42878,-29.5 1.31343,-32.12535 4.58883,-45.16905 15.63131,-62.24889 2.39982,-3.71189 5.28112,-8.54795 6.40289,-10.7468 4.36571,-8.55749 3.48527,-18.10666 -2.27426,-24.6664 C 478.76323,715.68843 476.05121,715 458.75588,715 c -8.41959,0 -19.05575,-0.46988 -23.63591,-1.04419 -10.55271,-1.3232 -28.5046,-5.94905 -37.75564,-9.7289 -9.60219,-3.92331 -34.27145,-18.89322 -57.12089,-34.66235 -23.98451,-16.55248 -42.64166,-27.80384 -52.19543,-31.47692 -8.79051,-3.37964 -17.43338,-5.09751 -43.54801,-8.65565 -10.45,-1.42382 -19.36168,-2.93767 -19.80374,-3.36412 -1.85514,-1.78961 24.73316,-10.94414 55.30374,-19.04143 51.67745,-13.68792 71.80267,-19.82415 81.88106,-24.96576 2.30427,-1.17555 3.95315,-2.51992 3.66418,-2.98748 -0.92044,-1.4893 -20.86326,-9.80339 -30.11937,-12.55667 -19.376,-5.76348 -30.59643,-9.79743 -31.13175,-11.19245 -0.30863,-0.80429 3.05825,-8.96873 7.48197,-18.14321 11.87367,-24.62515 16.57902,-38.14047 19.27389,-55.36104 C 332.51156,472.48019 331.86807,469 328.6796,469 c -5.66725,0 -42.02713,24.37675 -71.81778,48.14879 -44.16146,35.23951 -84.96969,77.82311 -97.99998,102.26348 -6.74178,12.64529 -4.40141,26.54823 5.70347,33.88135 2.60939,1.89363 9.96216,5.5971 16.33951,8.22993 6.37735,2.63283 20.82018,8.82609 32.09518,13.76279 64.98092,28.45157 84.57325,35.66058 146,53.72078 33.20583,9.76292 43.09275,14.15623 52.38798,23.27892 10.96431,10.76079 18.13919,28.82084 22.53124,56.71396 2.43572,15.46876 2.95921,21.05333 3.98784,42.54252 0.66415,13.87466 1.20286,17.91754 2.89814,21.75 1.14528,2.58911 2.74758,4.70748 3.56065,4.70748 0.81307,0 3.11769,-1.9125 5.12139,-4.25 z m -36.67803,-245 c 8.88771,-10.61209 17.39035,-23.06519 30.21272,-44.25 11.63757,-19.22732 22.9968,-41.76185 22.93569,-45.5 -0.0392,-2.3945 -0.19063,-2.3312 -3.58965,1.5 -14.60178,16.45835 -44.52356,60.89123 -51.96409,77.165 -5.10266,11.16042 -7.17219,19.335 -4.89497,19.335 0.21498,0 3.50011,-3.7125 7.3003,-8.25 z m 182.84394,-0.36817 c -8.17876,-19.37268 -21.98415,-41.9725 -44.91946,-73.53449 -15.99026,-22.00469 -19.42985,-23.94506 -11.74134,-6.62363 6.78552,15.28711 24.5414,45.66109 38.74348,66.27629 6.43516,9.34104 18.3024,21.86177 19.54397,20.6202 0.47538,-0.47538 -0.24847,-3.47393 -1.62665,-6.73837 z m -77.89621,-74.11759 0.25693,-68.23577 31.24307,-0.26423 L 580.5,485.5 580.7747,469.26428 581.04941,453.02856 549.7747,452.76428 518.5,452.5 518.23652,419.25 517.97304,386 H 501.48652 485 V 419.5 453 H 453.5 422 v 16.5 16.5 h 31.5 31.5 v 67.83333 c 0,37.30834 0.31099,68.14433 0.69109,68.52443 0.3801,0.3801 7.6926,0.5676 16.25,0.41666 L 517.5,622.5 Z m 366.00715,63.2168 c 10.64811,-3.16948 16.26505,-10.97146 16.39148,-22.7679 0.0682,-6.36408 -0.51291,-8.74337 -4.93689,-20.21314 -6.83651,-17.72458 -12.76864,-36.49853 -21.72419,-68.7525 -11.40218,-41.06564 -14.91584,-52.0172 -25.265,-78.7475 -5.21712,-13.475 -11.9436,-31.7 -14.94775,-40.5 -12.32554,-36.10505 -12.52416,-50.62403 -0.99714,-72.89097 12.69558,-24.52427 48.60083,-67.45878 68.72163,-82.17542 8.03177,-5.87455 8.08435,-5.94184 5.97706,-7.64823 -3.17871,-2.57396 -8.55092,-3.21075 -15.80732,-1.87371 -13.83393,2.549 -26.44415,9.89618 -46.67597,27.19511 -17.58168,15.03297 -27.76381,22.30652 -39,27.85945 -11.1139,5.49249 -17.68871,7.40927 -31,9.03753 -13.80187,1.68827 -18.84103,6.22088 -18.82501,16.93268 0.01,6.56378 2.11454,11.16557 9.83144,21.49548 6.30214,8.43611 11.57469,18.70284 15.04927,29.30405 4.56329,13.92293 6.33935,28.18675 7.91918,63.59991 3.36611,75.45455 7.54417,87.36904 49.79193,141.99072 2.05326,2.65462 3.73319,5.47868 3.73319,6.27568 0,2.13219 -4.08494,-0.19326 -19.5,-11.10086 -47.01458,-33.26721 -117.11447,-77.40432 -132.78702,-83.6069 -11.10317,-4.39421 -18.64323,-0.83521 -19.46456,9.18749 -1.02906,12.55753 9.31722,36.58958 27.92273,64.85814 2.69329,4.09209 4.68285,7.99793 4.42125,8.67964 -0.26159,0.68172 -7.7616,3.60526 -16.66668,6.49675 -15.54432,5.04727 -36.05981,14.24123 -36.66747,16.43243 -0.3243,1.16941 40.8629,14.83109 58.74175,19.48448 50.13949,13.04996 97.622,21.32874 134,23.36347 13.24047,0.74058 36.41039,-0.32232 41.76409,-1.91588 z M 591.99551,551.75 c -0.008,-2.11797 -10.50934,-13.16459 -22.79047,-23.97299 C 552.95295,513.47385 545,507.47001 545,509.50413 c 0,2.08853 17.62001,20.24427 30.5,31.42733 13.62766,11.83222 16.50594,13.71994 16.49551,10.81854 z m -172.08638,-3.92704 c 6.61639,-4.94323 35.33985,-33.33109 37.00532,-36.57296 2.34908,-4.57251 -1.84447,-2.28224 -12.14809,6.63455 C 433.22822,527.86971 412,549.27391 412,550.92255 c 0,1.99639 2.28895,1.09935 7.90913,-3.09959 z m -71.85996,-6.37681 c 23.9107,-7.71695 50.81876,-20.35659 65.09191,-30.5759 14.21838,-10.1801 14.75936,-11.29716 4.01283,-8.28607 -9.24551,2.59052 -14.71012,4.76928 -36.1319,14.40592 -32.35031,14.55286 -55.43588,26.53122 -54.39106,28.22178 1.02001,1.65042 8.96427,0.25367 21.41822,-3.76573 z m 328.12648,2.72123 c -7.92679,-6.09817 -54.40325,-28.12789 -74.92762,-35.51551 -9.56392,-3.44247 -23.3158,-6.92207 -24.11384,-6.10145 -0.97963,1.00734 7.20002,7.64917 15.88954,12.90222 C 610.29835,525.89559 663.71941,545.74 675,545.90449 l 3.5,0.051 z M 640.75,480.32604 c 3.37531,-0.81436 2.71535,-2.13916 -1.5,-3.0111 -6.1406,-1.27018 -35.35805,-0.87232 -38.66284,0.52648 -3.72278,1.57572 -2.42809,2.89758 3.41284,3.48447 5.37242,0.5398 33.54545,-0.22669 36.75,-0.99985 z M 404.73164,479.30736 C 405.37883,477.36207 398.55204,476.5 382.5,476.5 c -15.14877,0 -23.49601,0.94332 -21.88025,2.47268 1.67815,1.58843 4.97545,1.81528 24.29768,1.67166 14.03742,-0.10435 19.52737,-0.47479 19.81421,-1.33698 z M 406.014,447.5149 c -1.28404,-1.3668 -6.42498,-4.50117 -11.42431,-6.96527 -10.42296,-5.13734 -68.04608,-25.72985 -80.05736,-28.60974 C 306.27271,409.95952 295,409.33498 295,410.85775 c 0,1.65461 23.65833,12.99281 39.5,18.93028 26.69827,10.00654 45.23371,15.55969 62.10703,18.60702 11.90821,2.15063 12.22628,2.12087 9.40697,-0.88015 z m 206.29043,-0.45171 c 21.15945,-5.09539 61.98275,-19.924 73.19557,-26.58747 6.77113,-4.0239 16.29941,-11.97956 15.42116,-12.87594 -0.66065,-0.67429 -12.62282,2.27923 -24.42116,6.02971 -12.07218,3.83753 -59.04086,22.16106 -66.94671,26.11742 -20.46134,10.23952 -19.5419,12.68465 2.75114,7.31628 z m -151.03624,-17.2187 c -3.57947,-6.48475 -21.44352,-30.23707 -39.51066,-52.534 C 413.91589,367.63301 403.9,355.14855 399.5,349.56727 c -4.4,-5.58129 -10.7,-13.21448 -14,-16.96266 -7.20507,-8.18358 -17.78293,-17.25583 -18.30242,-15.69734 -0.84198,2.52592 12.49588,23.21627 27.73665,43.02648 22.53653,29.29336 33.77561,42.58176 49.8389,58.92643 17.36384,17.668 21.82366,20.63787 16.49506,10.98431 z M 568.86194,406 c 7.52019,-8.525 18.80886,-22.25 25.08592,-30.5 6.27706,-8.25 14.47746,-18.88223 18.22312,-23.62719 12.62064,-15.98767 23.47699,-35.62484 21.04154,-38.06029 -1.20599,-1.20599 -14.95522,13.38974 -24.67677,26.19607 -4.38034,5.77028 -15.89079,20.39141 -25.57878,32.49141 -9.68799,12.1 -20.74806,26.13624 -24.57795,31.19164 C 550.8681,413.60597 541,430.5843 541,433.59271 541,436.10119 551.35399,425.84725 568.86194,406 Z m 19.93401,21.36698 C 601.93258,418.61861 614,408.59301 614,406.42751 c 0,-2.28844 -3.89507,0.0715 -19.69032,11.92974 -22.62293,16.98417 -26.1551,22.75593 -5.51373,9.00973 z M 426,432.18709 c 0,-2.48477 -26.94683,-22.59562 -34.51105,-25.75615 -9.27591,-3.87573 0.2094,4.45612 20.79368,18.26507 C 424.49813,432.89076 426,433.71093 426,432.18709 Z M 532.38754,387.25 c 0.85154,-2.6125 3.13771,-10.5956 5.08036,-17.74022 C 540.94813,356.7103 541.85638,350 540.10858,350 c -2.18017,0 -10.03951,25.26716 -10.80897,34.75 -0.69307,8.54129 0.74046,9.70188 3.08793,2.5 z m -57.85287,-0.5321 c 1.02815,-4.09648 -6.17278,-32.63495 -9.51712,-37.7179 -2.77265,-4.21407 1.89395,22.90253 6.5826,38.25 0.74907,2.45195 2.25406,2.17906 2.93452,-0.5321 z m 28.85763,-16.29783 c 1.85991,-4.84685 2.57882,-20.72454 1.64358,-36.29969 -1.04853,-17.46172 -1.75164,-22.82667 -3.10087,-23.66054 -0.44366,-0.2742 -1.13948,1.64766 -1.54626,4.27081 -0.9621,6.20422 -1.10624,53.23971 -0.17013,55.51935 0.89404,2.17722 2.37305,2.25648 3.17368,0.17007 z M 261.94176,338.0167 c 5.0737,-1.45512 9.74314,-6.52761 14.28375,-15.5167 6.30611,-12.48428 10.40863,-18.33946 19.16246,-27.34897 14.96713,-15.40428 32.15451,-26.88135 59.30874,-39.60409 27.62907,-12.94522 40.48577,-20.2783 56.08272,-31.9879 26.27611,-19.72712 44.12171,-42.41724 56.67386,-72.05904 7.38654,-17.44326 6.97133,-16.80165 7.33706,-11.33773 0.36778,5.49463 -5.05972,39.5366 -15.31057,96.0298 -8.90823,49.09388 -13.09965,82.68876 -10.51579,84.28567 2.6267,1.62339 19.90304,-12.4306 36.72472,-29.8749 C 491.8425,284.22128 497.33223,279 497.88811,279 c 0.55588,0 3.84596,2.47098 7.31129,5.49107 C 532.05872,307.89936 546.49069,319 550.06456,319 c 2.45294,0 2.82809,-4.19906 1.83153,-20.5 C 549.03626,251.72125 541.3989,192.17084 533.05954,151.62664 521.88546,97.300642 510.65713,70.853506 496.46571,65.433753 490.24717,63.058871 481.76817,63.92656 474.82146,67.648692 468.1422,71.227526 436.16952,102.05996 364,174.51793 c -50.35541,50.55666 -64.18895,63.42408 -78.99754,73.4804 -11.3476,7.70601 -13.98572,8.51295 -27.50246,8.41242 -10.67359,-0.0794 -13.78821,-0.55148 -28.17794,-4.27097 C 193.83036,242.96581 170.86042,233.46423 154,220.98263 143.03672,212.86661 139.40985,211 134.60355,211 c -7.78253,0 -7.72001,3.57816 0.36049,20.63245 7.0678,14.91693 12.03253,19.20436 38.09669,32.89946 29.49824,15.4995 42.76901,27.49411 58.52286,52.89516 2.70403,4.3599 7.32701,10.54699 10.27329,13.74911 6.72023,7.30375 12.09133,9.13304 20.08488,6.84052 z"
       id="path1"
       sodipodi:nodetypes="ssssssssssssssssssssssssssssssssssssssssssssssccccccccccccccccccccsssccssssssssssssscssssssssssssssscssscsssssssssssssssscssssssssssssssssssssssssssssssssssssssssssssssssssssssssssssssssssssssssssssssssssssssssssss" />
  </g>
</svg>
